<svg width="25" height="24" viewBox="0 0 25 24" fill="none" xmlns="http://www.w3.org/2000/svg">
<g id="heroicons-solid/arrow-down-tray">
<path id="Vector (Stroke)" fill-rule="evenodd" clip-rule="evenodd" d="M12.2982 2.25C12.7124 2.25 13.0482 2.58579 13.0482 3V14.6893L16.2679 11.4697C16.5608 11.1768 17.0357 11.1768 17.3285 11.4697C17.6214 11.7626 17.6214 12.2374 17.3285 12.5303L12.8285 17.0303C12.5357 17.3232 12.0608 17.3232 11.7679 17.0303L7.26789 12.5303C6.97499 12.2374 6.97499 11.7626 7.26789 11.4697C7.56078 11.1768 8.03566 11.1768 8.32855 11.4697L11.5482 14.6893V3C11.5482 2.58579 11.884 2.25 12.2982 2.25ZM3.29822 15.75C3.71243 15.75 4.04822 16.0858 4.04822 16.5V18.75C4.04822 19.5784 4.71979 20.25 5.54822 20.25H19.0482C19.8766 20.25 20.5482 19.5784 20.5482 18.75V16.5C20.5482 16.0858 20.884 15.75 21.2982 15.75C21.7124 15.75 22.0482 16.0858 22.0482 16.5V18.75C22.0482 20.4069 20.7051 21.75 19.0482 21.75H5.54822C3.89136 21.75 2.54822 20.4069 2.54822 18.75V16.5C2.54822 16.0858 2.884 15.75 3.29822 15.75Z" fill="#FAFAFA"/>
</g>
</svg>
