<svg width="32" height="32" viewBox="0 0 32 32" fill="none" xmlns="http://www.w3.org/2000/svg">
<g id="heroicons-solid/arrow-down-tray">
<path id="Vector (Stroke)" fill-rule="evenodd" clip-rule="evenodd" d="M16 3C16.5523 3 17 3.44772 17 4V19.5858L21.2929 15.2929C21.6834 14.9024 22.3166 14.9024 22.7071 15.2929C23.0976 15.6834 23.0976 16.3166 22.7071 16.7071L16.7071 22.7071C16.3166 23.0976 15.6834 23.0976 15.2929 22.7071L9.29289 16.7071C8.90237 16.3166 8.90237 15.6834 9.29289 15.2929C9.68342 14.9024 10.3166 14.9024 10.7071 15.2929L15 19.5858V4C15 3.44772 15.4477 3 16 3ZM4 21C4.55228 21 5 21.4477 5 22V25C5 26.1046 5.89543 27 7 27H25C26.1046 27 27 26.1046 27 25V22C27 21.4477 27.4477 21 28 21C28.5523 21 29 21.4477 29 22V25C29 27.2091 27.2091 29 25 29H7C4.79086 29 3 27.2091 3 25V22C3 21.4477 3.44772 21 4 21Z" fill="#FAFAFA"/>
</g>
</svg>
