<svg width="48" height="48" viewBox="0 0 48 48" fill="none" xmlns="http://www.w3.org/2000/svg">
<g id="heroicons-solid/bars-3">
<path id="Vector (Stroke)" fill-rule="evenodd" clip-rule="evenodd" d="M6 13.5C6 12.6716 6.67157 12 7.5 12H40.5C41.3284 12 42 12.6716 42 13.5C42 14.3284 41.3284 15 40.5 15H7.5C6.67157 15 6 14.3284 6 13.5ZM6 24C6 23.1716 6.67157 22.5 7.5 22.5H40.5C41.3284 22.5 42 23.1716 42 24C42 24.8284 41.3284 25.5 40.5 25.5H7.5C6.67157 25.5 6 24.8284 6 24ZM6 34.5C6 33.6716 6.67157 33 7.5 33H40.5C41.3284 33 42 33.6716 42 34.5C42 35.3284 41.3284 36 40.5 36H7.5C6.67157 36 6 35.3284 6 34.5Z" fill="#F8FAFC"/>
</g>
</svg>
