<svg width="32" height="33" viewBox="0 0 32 33" fill="none" xmlns="http://www.w3.org/2000/svg">
<g id="logos:cypress-icon" clip-path="url(#clip0_252_1933)">
<path id="Vector" d="M17.7064 28.4929L17.1645 29.8087C17.0569 30.0692 16.8108 30.2455 16.5338 30.2574C16.3508 30.2644 16.1663 30.2695 15.9799 30.2695C9.6019 30.2662 3.95878 25.7554 2.56053 19.54L0.389404 20.0317C1.17403 23.5179 3.1434 26.6822 5.93503 28.9435C8.75903 31.2305 12.3165 32.4932 15.9559 32.5H15.9884C16.2022 32.5 16.4142 32.4949 16.626 32.4863C17.768 32.4384 18.7885 31.7205 19.2245 30.6567L19.9322 28.9367L17.7064 28.4929Z" fill="url(#paint0_linear_252_1933)"/>
<path id="Vector_2" d="M0.567501 20.7392C0.190275 19.358 -0.000582404 17.9326 1.33496e-06 16.5008C1.33496e-06 9.93947 4.10788 3.93997 10.2228 1.5741L11.0245 3.6556C5.761 5.69247 2.22575 10.8543 2.22575 16.5008C2.22502 17.7329 2.38888 18.9595 2.713 20.1481L0.567501 20.7392Z" fill="url(#paint1_linear_252_1933)"/>
<path id="Vector_3" d="M28.2116 10.1622C25.832 5.5795 21.148 2.73225 15.9905 2.73225C14.163 2.73225 12.387 3.08512 10.715 3.779L9.86212 1.718C11.8057 0.91125 13.8674 0.5 15.9905 0.5C21.9822 0.5 27.4217 3.80637 30.186 9.13087L28.2116 10.1622Z" fill="url(#paint2_linear_252_1933)"/>
<path id="Vector_4" d="M11.2159 13.1997C12.5066 13.1997 13.558 13.89 14.0981 15.0944L14.1409 15.1887L16.3084 14.4503L16.2623 14.3389C15.4229 12.2883 13.4895 11.0137 11.216 11.0137C9.61763 11.0137 8.31838 11.5277 7.24475 12.5829C6.17813 13.6314 5.63788 14.9504 5.63788 16.5043C5.63788 18.0444 6.17813 19.3568 7.24475 20.4052C8.31838 21.4605 9.61763 21.9744 11.216 21.9744C13.4895 21.9744 15.4229 20.6998 16.2623 18.6509L16.3085 18.5397L14.1375 17.7994L14.0964 17.8972C13.6126 19.0809 12.5356 19.7884 11.2159 19.7884C10.3168 19.7884 9.55775 19.4733 8.95588 18.853C8.3475 18.2243 8.03975 17.4345 8.03975 16.506C8.03975 15.5707 8.34063 14.7963 8.956 14.1385C9.556 13.5148 10.3166 13.1997 11.2159 13.1997Z" fill="#09293F"/>
<path id="Vector_5" d="M24.7926 11.2157L21.7036 19.0568L18.594 11.2157H16.0502L20.4112 21.9178L17.3085 29.4659L19.5325 29.9097L27.1961 11.2157H24.7926Z" fill="#09293F"/>
<path id="Vector_6" d="M30.186 9.13086C31.3114 11.3231 32 13.8981 32 16.5337C32 22.6837 28.5411 28.0232 23.4684 30.7016L22.3724 28.7581C26.7711 26.4641 29.7757 21.8509 29.7757 16.5337C29.7757 14.2262 29.2116 12.0724 28.2116 10.1621L30.186 9.13086Z" fill="url(#paint3_linear_252_1933)"/>
</g>
<defs>
<linearGradient id="paint0_linear_252_1933" x1="123.9" y1="590.143" x2="1651.61" y2="998.053" gradientUnits="userSpaceOnUse">
<stop stop-color="#315C55"/>
<stop offset="1" stop-color="#09293F"/>
</linearGradient>
<linearGradient id="paint1_linear_252_1933" x1="598.608" y1="524.054" x2="456.413" y2="1908.35" gradientUnits="userSpaceOnUse">
<stop stop-color="#4FB38D"/>
<stop offset="1" stop-color="#315C55"/>
</linearGradient>
<linearGradient id="paint2_linear_252_1933" x1="292.547" y1="483.612" x2="1420.07" y2="690.316" gradientUnits="userSpaceOnUse">
<stop stop-color="#4FB38D"/>
<stop offset="1" stop-color="#97DEC0"/>
</linearGradient>
<linearGradient id="paint3_linear_252_1933" x1="540.916" y1="675.498" x2="-73.9344" y2="1826.65" gradientUnits="userSpaceOnUse">
<stop stop-color="#97DEC0"/>
<stop offset="1" stop-color="#FFFFF0" stop-opacity="0"/>
</linearGradient>
<clipPath id="clip0_252_1933">
<rect width="32" height="32" fill="white" transform="translate(0 0.5)"/>
</clipPath>
</defs>
</svg>
