<svg width="409" height="26" viewBox="0 0 409 26" fill="none" xmlns="http://www.w3.org/2000/svg">
<path d="M13.256 22.472C14.1733 22.472 14.9787 22.296 15.672 21.944C16.376 21.592 16.9253 21.0853 17.32 20.424C17.7147 19.7627 17.912 18.968 17.912 18.04C17.912 17.112 17.6987 16.3387 17.272 15.72C16.856 15.1013 16.296 14.6373 15.592 14.328C14.888 14.0187 14.1093 13.864 13.256 13.864H8.728C8.42933 13.864 8.22667 13.9227 8.12 14.04C8.024 14.1467 7.976 14.36 7.976 14.68V21.784C7.976 22.0613 8.024 22.248 8.12 22.344C8.22667 22.4293 8.424 22.472 8.712 22.472H13.256ZM8.808 11.336H12.84C13.608 11.336 14.3173 11.2027 14.968 10.936C15.6293 10.6587 16.1627 10.232 16.568 9.656C16.9733 9.06933 17.176 8.312 17.176 7.384C17.176 6.456 16.9787 5.70933 16.584 5.144C16.1893 4.57867 15.6667 4.168 15.016 3.912C14.3653 3.656 13.64 3.528 12.84 3.528H8.616C8.37067 3.528 8.2 3.576 8.104 3.672C8.01867 3.75733 7.976 3.928 7.976 4.184V10.6C7.976 10.9413 8.02933 11.1493 8.136 11.224C8.24267 11.2987 8.46667 11.336 8.808 11.336ZM13.672 25H0.76C0.482667 25 0.301333 24.9573 0.216 24.872C0.130667 24.7867 0.0880001 24.6053 0.0880001 24.328V23C0.0880001 22.7653 0.130667 22.6213 0.216 22.568C0.301333 22.504 0.450667 22.472 0.664 22.472H2.92C3.18667 22.472 3.368 22.4347 3.464 22.36C3.56 22.2747 3.608 22.0987 3.608 21.832V4.2C3.608 3.912 3.56 3.73067 3.464 3.656C3.37867 3.57067 3.192 3.528 2.904 3.528H0.744C0.466667 3.528 0.285333 3.496 0.2 3.432C0.125333 3.368 0.0880001 3.19733 0.0880001 2.92V1.608C0.0880001 1.36267 0.125333 1.20267 0.2 1.128C0.285333 1.04266 0.445333 0.999998 0.68 0.999998H12.936C14.8027 0.999998 16.392 1.21866 17.704 1.656C19.016 2.08267 20.008 2.74933 20.68 3.656C21.3627 4.56267 21.704 5.72533 21.704 7.144C21.704 8.50933 21.3787 9.61333 20.728 10.456C20.0773 11.288 19.1173 11.8853 17.848 12.248C17.592 12.3227 17.4693 12.4133 17.48 12.52C17.4907 12.6267 17.6133 12.712 17.848 12.776C19.4053 13.1493 20.6107 13.784 21.464 14.68C22.328 15.576 22.76 16.776 22.76 18.28C22.76 19.912 22.4133 21.2187 21.72 22.2C21.0373 23.1813 20.0187 23.896 18.664 24.344C17.3093 24.7813 15.6453 25 13.672 25ZM49.1373 11.704H53.5693C54.3159 11.704 55.0093 11.5547 55.6493 11.256C56.2999 10.9467 56.8226 10.4933 57.2173 9.896C57.6119 9.288 57.8093 8.536 57.8093 7.64C57.8093 6.744 57.6119 5.992 57.2173 5.384C56.8226 4.76533 56.2999 4.30133 55.6493 3.992C55.0093 3.68267 54.3159 3.528 53.5693 3.528H49.0253C48.7159 3.528 48.5079 3.56533 48.4013 3.64C48.3053 3.71467 48.2573 3.912 48.2573 4.232V10.952C48.2573 11.3147 48.3159 11.5333 48.4333 11.608C48.5613 11.672 48.7959 11.704 49.1373 11.704ZM63.7933 25H61.3613C60.2733 25 59.4306 24.808 58.8333 24.424C58.2466 24.0293 57.8199 23.5173 57.5533 22.888C57.2866 22.248 57.1053 21.5493 57.0093 20.792C56.9133 20.024 56.8226 19.2613 56.7373 18.504C56.6519 17.7467 56.4866 17.0533 56.2413 16.424C55.9959 15.784 55.5959 15.272 55.0413 14.888C54.4866 14.4933 53.6866 14.296 52.6413 14.296H49.0893C48.7479 14.296 48.5239 14.328 48.4173 14.392C48.3106 14.456 48.2573 14.6587 48.2573 15V21.736C48.2573 22.0133 48.2999 22.2053 48.3853 22.312C48.4706 22.4187 48.6573 22.472 48.9453 22.472H51.1853C51.4519 22.472 51.6173 22.5147 51.6813 22.6C51.7453 22.6747 51.7773 22.8507 51.7773 23.128V24.248C51.7773 24.5893 51.7133 24.8027 51.5853 24.888C51.4573 24.9627 51.2333 25 50.9133 25H41.0413C40.7319 25 40.5399 24.9573 40.4653 24.872C40.4013 24.776 40.3693 24.5733 40.3693 24.264V23.24C40.3693 22.888 40.4119 22.6747 40.4973 22.6C40.5933 22.5147 40.8119 22.472 41.1533 22.472H43.0573C43.3986 22.472 43.6226 22.4293 43.7293 22.344C43.8359 22.2587 43.8893 22.0507 43.8893 21.72V4.232C43.8893 3.976 43.8573 3.79467 43.7933 3.688C43.7293 3.58133 43.5639 3.528 43.2973 3.528H40.9773C40.7639 3.528 40.6093 3.48533 40.5133 3.4C40.4173 3.31467 40.3693 3.16533 40.3693 2.952V1.64C40.3693 1.384 40.4066 1.21333 40.4813 1.128C40.5666 1.04266 40.7266 0.999998 40.9613 0.999998H53.5693C55.6279 0.999998 57.3026 1.272 58.5933 1.816C59.8839 2.36 60.8279 3.11733 61.4253 4.088C62.0333 5.05867 62.3373 6.17867 62.3373 7.448C62.3373 8.74933 62.0279 9.85333 61.4093 10.76C60.8013 11.6667 59.7666 12.344 58.3053 12.792C57.9959 12.888 57.8253 13.0107 57.7933 13.16C57.7719 13.2987 57.9053 13.432 58.1933 13.56C59.0359 13.9333 59.6653 14.4133 60.0813 15C60.5079 15.5867 60.8013 16.216 60.9613 16.888C61.1213 17.5493 61.2173 18.2107 61.2493 18.872C61.2813 19.5333 61.3186 20.136 61.3613 20.68C61.4146 21.2133 61.5373 21.6453 61.7293 21.976C61.9319 22.3067 62.2786 22.472 62.7693 22.472H63.7773C64.0333 22.472 64.2039 22.4987 64.2893 22.552C64.3853 22.5947 64.4333 22.7547 64.4333 23.032V24.392C64.4333 24.6587 64.3906 24.8293 64.3053 24.904C64.2199 24.968 64.0493 25 63.7933 25ZM94.4013 5.976L90.5613 15C90.4759 15.2027 90.4439 15.3573 90.4653 15.464C90.4973 15.5707 90.6786 15.624 91.0093 15.624H97.6973C98.1453 15.624 98.3746 15.5653 98.3853 15.448C98.4066 15.3307 98.3639 15.1227 98.2573 14.824L94.9773 6.024C94.8493 5.68267 94.7479 5.52267 94.6733 5.544C94.6093 5.56533 94.5186 5.70933 94.4013 5.976ZM81.2812 24.264V23C81.2812 22.808 81.3186 22.6747 81.3933 22.6C81.4679 22.5147 81.6066 22.472 81.8092 22.472H84.0173C84.3373 22.472 84.5399 22.4187 84.6253 22.312C84.7106 22.2053 84.8013 22.0507 84.8973 21.848L93.9693 0.791998C94.0226 0.663998 94.0759 0.589332 94.1293 0.567999C94.1933 0.535999 94.3213 0.519999 94.5133 0.519999H96.8493C97.0413 0.519999 97.1746 0.541332 97.2493 0.584C97.3239 0.626666 97.3933 0.717332 97.4573 0.855999L105.745 21.688C105.852 21.9547 105.937 22.152 106.001 22.28C106.076 22.408 106.305 22.472 106.689 22.472H109.089C109.324 22.472 109.479 22.504 109.553 22.568C109.628 22.6213 109.665 22.7653 109.665 23V24.392C109.665 24.6587 109.633 24.8293 109.569 24.904C109.516 24.968 109.356 25 109.089 25H98.1933C97.9586 25 97.7933 24.968 97.6973 24.904C97.6119 24.8293 97.5693 24.664 97.5693 24.408V23.032C97.5693 22.7867 97.6119 22.632 97.6973 22.568C97.7826 22.504 97.9426 22.472 98.1772 22.472H100.433C100.753 22.472 100.919 22.4187 100.929 22.312C100.951 22.1947 100.924 22.0347 100.849 21.832L99.7292 18.824C99.6119 18.504 99.5106 18.296 99.4253 18.2C99.3399 18.104 99.0733 18.056 98.6253 18.056H90.0972C89.7559 18.056 89.5213 18.0933 89.3933 18.168C89.2653 18.232 89.1533 18.3813 89.0573 18.616L87.7453 21.736C87.6386 21.992 87.6066 22.1787 87.6493 22.296C87.6919 22.4133 87.8786 22.472 88.2093 22.472H90.4013C90.6039 22.472 90.7373 22.5093 90.8013 22.584C90.8759 22.648 90.9133 22.7867 90.9133 23V24.472C90.9133 24.728 90.8813 24.8827 90.8173 24.936C90.7639 24.9787 90.6093 25 90.3533 25H82.1613C81.8199 25 81.5853 24.968 81.4573 24.904C81.3399 24.8293 81.2812 24.616 81.2812 24.264ZM129.288 3.528H127.384C127.139 3.528 126.979 3.49067 126.904 3.416C126.83 3.34133 126.792 3.18667 126.792 2.952V1.816C126.792 1.47467 126.83 1.256 126.904 1.16C126.979 1.05333 127.182 0.999998 127.512 0.999998H133.176C133.784 0.999998 134.184 1.05866 134.376 1.176C134.579 1.28267 134.808 1.496 135.064 1.816L146.936 16.696C147.171 16.9627 147.358 17.064 147.496 17C147.646 16.936 147.72 16.5733 147.72 15.912V4.248C147.72 3.928 147.672 3.73067 147.576 3.656C147.491 3.57067 147.294 3.528 146.984 3.528H145.192C144.926 3.528 144.691 3.50133 144.488 3.448C144.296 3.384 144.2 3.208 144.2 2.92V1.88C144.2 1.53867 144.248 1.30933 144.344 1.192C144.451 1.064 144.675 0.999998 145.016 0.999998H153.096C153.299 0.999998 153.47 1.02666 153.608 1.08C153.758 1.12267 153.832 1.26133 153.832 1.496V2.728C153.832 3.05867 153.795 3.27733 153.72 3.384C153.646 3.48 153.438 3.528 153.096 3.528H151.224C150.904 3.528 150.696 3.58133 150.6 3.688C150.515 3.784 150.472 3.99733 150.472 4.328V24.664C150.472 24.888 150.44 25.0587 150.376 25.176C150.323 25.304 150.174 25.368 149.928 25.368H149.176C148.867 25.368 148.638 25.3253 148.488 25.24C148.35 25.1547 148.211 25.0267 148.072 24.856L133.72 6.856C133.475 6.54667 133.278 6.43467 133.128 6.52C132.979 6.59467 132.904 7.02133 132.904 7.8V21.72C132.904 22.0507 132.947 22.2587 133.032 22.344C133.118 22.4293 133.32 22.472 133.64 22.472H136.04C136.275 22.472 136.424 22.52 136.488 22.616C136.552 22.712 136.584 22.8773 136.584 23.112V24.328C136.584 24.6373 136.52 24.8293 136.392 24.904C136.275 24.968 136.067 25 135.768 25H127.592C127.251 25 127.032 24.9627 126.936 24.888C126.84 24.8133 126.792 24.6107 126.792 24.28V23.128C126.792 22.8187 126.851 22.632 126.968 22.568C127.096 22.504 127.31 22.472 127.608 22.472H129.288C129.662 22.472 129.896 22.424 129.992 22.328C130.099 22.232 130.152 22.0027 130.152 21.64V4.328C130.152 3.944 130.099 3.71467 129.992 3.64C129.896 3.56533 129.662 3.528 129.288 3.528ZM171.526 24.456V23.096C171.526 22.8293 171.558 22.6587 171.622 22.584C171.696 22.5093 171.856 22.472 172.102 22.472H174.518C174.774 22.472 174.923 22.4293 174.966 22.344C175.019 22.248 175.046 22.0667 175.046 21.8V4.264C175.046 3.96533 175.014 3.768 174.95 3.672C174.886 3.576 174.71 3.528 174.422 3.528H172.39C172.059 3.528 171.83 3.496 171.702 3.432C171.584 3.368 171.526 3.18667 171.526 2.888V1.576C171.526 1.33066 171.6 1.176 171.75 1.112C171.899 1.03733 172.112 0.999998 172.39 0.999998H183.926C185.974 0.999998 187.76 1.304 189.286 1.912C190.822 2.50933 192.091 3.352 193.094 4.44C194.107 5.528 194.864 6.80267 195.366 8.264C195.867 9.71467 196.118 11.2933 196.118 13C196.118 14.7067 195.851 16.2907 195.318 17.752C194.795 19.2027 194.016 20.472 192.982 21.56C191.947 22.648 190.672 23.496 189.158 24.104C187.643 24.7013 185.899 25 183.926 25H172.134C171.899 25 171.739 24.968 171.654 24.904C171.568 24.84 171.526 24.6907 171.526 24.456ZM180.166 22.472H183.83C185.568 22.472 186.966 22.0773 188.022 21.288C189.088 20.488 189.862 19.3787 190.342 17.96C190.822 16.5307 191.062 14.8773 191.062 13C191.062 11.1227 190.8 9.47467 190.278 8.056C189.755 6.62667 188.955 5.51733 187.878 4.728C186.811 3.928 185.462 3.528 183.83 3.528H180.182C179.862 3.528 179.654 3.57067 179.558 3.656C179.462 3.74133 179.414 3.95467 179.414 4.296V21.864C179.414 22.152 179.462 22.328 179.558 22.392C179.664 22.4453 179.867 22.472 180.166 22.472ZM215.568 13C215.568 11.2507 215.845 9.624 216.4 8.12C216.955 6.616 217.749 5.29867 218.784 4.168C219.829 3.03733 221.099 2.15733 222.592 1.528C224.096 0.898666 225.787 0.584 227.664 0.584C229.541 0.584 231.227 0.898666 232.72 1.528C234.213 2.15733 235.483 3.03733 236.528 4.168C237.573 5.29867 238.373 6.616 238.928 8.12C239.483 9.624 239.76 11.2507 239.76 13C239.76 14.7493 239.467 16.376 238.88 17.88C238.304 19.384 237.477 20.7013 236.4 21.832C235.333 22.9627 234.059 23.8427 232.576 24.472C231.104 25.1013 229.467 25.416 227.664 25.416C225.787 25.416 224.096 25.1013 222.592 24.472C221.099 23.8427 219.829 22.9627 218.784 21.832C217.749 20.7013 216.955 19.384 216.4 17.88C215.845 16.376 215.568 14.7493 215.568 13ZM220.64 13C220.64 14.408 220.773 15.72 221.04 16.936C221.307 18.152 221.717 19.2187 222.272 20.136C222.837 21.0533 223.563 21.768 224.448 22.28C225.344 22.792 226.416 23.048 227.664 23.048C228.987 23.048 230.096 22.792 230.992 22.28C231.899 21.768 232.624 21.0533 233.168 20.136C233.712 19.2187 234.101 18.152 234.336 16.936C234.571 15.72 234.688 14.408 234.688 13C234.688 11.5813 234.555 10.2693 234.288 9.064C234.021 7.848 233.605 6.78133 233.04 5.864C232.485 4.94667 231.76 4.232 230.864 3.72C229.979 3.208 228.912 2.952 227.664 2.952C226.416 2.952 225.344 3.208 224.448 3.72C223.563 4.232 222.837 4.94667 222.272 5.864C221.717 6.78133 221.307 7.848 221.04 9.064C220.773 10.2693 220.64 11.5813 220.64 13ZM260.32 3.528H258.416C258.17 3.528 258.01 3.49067 257.936 3.416C257.861 3.34133 257.824 3.18667 257.824 2.952V1.816C257.824 1.47467 257.861 1.256 257.936 1.16C258.01 1.05333 258.213 0.999998 258.544 0.999998H264.208C264.816 0.999998 265.216 1.05866 265.408 1.176C265.61 1.28267 265.84 1.496 266.095 1.816L277.968 16.696C278.202 16.9627 278.389 17.064 278.528 17C278.677 16.936 278.752 16.5733 278.752 15.912V4.248C278.752 3.928 278.704 3.73067 278.608 3.656C278.522 3.57067 278.325 3.528 278.016 3.528H276.224C275.957 3.528 275.722 3.50133 275.52 3.448C275.328 3.384 275.232 3.208 275.232 2.92V1.88C275.232 1.53867 275.28 1.30933 275.376 1.192C275.482 1.064 275.706 0.999998 276.048 0.999998H284.128C284.33 0.999998 284.501 1.02666 284.64 1.08C284.789 1.12267 284.864 1.26133 284.864 1.496V2.728C284.864 3.05867 284.826 3.27733 284.752 3.384C284.677 3.48 284.469 3.528 284.128 3.528H282.256C281.936 3.528 281.728 3.58133 281.632 3.688C281.546 3.784 281.504 3.99733 281.504 4.328V24.664C281.504 24.888 281.472 25.0587 281.408 25.176C281.354 25.304 281.205 25.368 280.96 25.368H280.208C279.898 25.368 279.669 25.3253 279.52 25.24C279.381 25.1547 279.242 25.0267 279.104 24.856L264.752 6.856C264.506 6.54667 264.309 6.43467 264.16 6.52C264.01 6.59467 263.936 7.02133 263.936 7.8V21.72C263.936 22.0507 263.978 22.2587 264.064 22.344C264.149 22.4293 264.352 22.472 264.672 22.472H267.072C267.306 22.472 267.456 22.52 267.52 22.616C267.584 22.712 267.616 22.8773 267.616 23.112V24.328C267.616 24.6373 267.552 24.8293 267.424 24.904C267.306 24.968 267.098 25 266.8 25H258.624C258.282 25 258.064 24.9627 257.968 24.888C257.872 24.8133 257.824 24.6107 257.824 24.28V23.128C257.824 22.8187 257.882 22.632 258 22.568C258.128 22.504 258.341 22.472 258.64 22.472H260.32C260.693 22.472 260.928 22.424 261.024 22.328C261.13 22.232 261.184 22.0027 261.184 21.64V4.328C261.184 3.944 261.13 3.71467 261.024 3.64C260.928 3.56533 260.693 3.528 260.32 3.528ZM341.191 18.152L345.575 6.808C345.692 6.47733 345.783 6.20533 345.847 5.992C345.911 5.77867 345.884 5.496 345.767 5.144L345.399 4.056C345.335 3.84267 345.249 3.704 345.142 3.64C345.047 3.56533 344.86 3.528 344.583 3.528H343.047C342.759 3.528 342.583 3.48 342.519 3.384C342.465 3.288 342.439 3.096 342.439 2.808V1.848C342.439 1.47467 342.481 1.24 342.567 1.144C342.652 1.048 342.871 0.999998 343.222 0.999998H351.767C352.023 0.999998 352.215 1.03733 352.343 1.112C352.481 1.176 352.551 1.34667 352.551 1.624V2.712C352.551 3.064 352.481 3.288 352.343 3.384C352.215 3.48 351.98 3.528 351.639 3.528H350.743C350.327 3.528 350.06 3.576 349.943 3.672C349.836 3.75733 349.836 3.96 349.943 4.28L353.719 16.712C353.804 16.9893 353.879 17.2987 353.943 17.64C354.007 17.9813 354.076 18.2747 354.151 18.52C354.225 18.7547 354.305 18.872 354.391 18.872C354.465 18.872 354.54 18.8187 354.615 18.712C354.7 18.6053 354.796 18.3867 354.903 18.056L359.543 4.2C359.649 3.912 359.692 3.73067 359.671 3.656C359.66 3.57067 359.447 3.528 359.031 3.528H357.079C356.78 3.528 356.588 3.48533 356.503 3.4C356.428 3.304 356.391 3.096 356.391 2.776V1.832C356.391 1.48 356.428 1.256 356.503 1.16C356.577 1.05333 356.791 0.999998 357.143 0.999998H365.079C365.409 0.999998 365.633 1.032 365.751 1.096C365.868 1.16 365.927 1.35733 365.927 1.688V2.84C365.927 3.14933 365.879 3.34133 365.783 3.416C365.697 3.49067 365.5 3.528 365.191 3.528H363.079C362.695 3.528 362.46 3.576 362.375 3.672C362.3 3.768 362.215 3.95466 362.119 4.232L355.191 24.824C355.116 25.0587 355.036 25.1973 354.951 25.24C354.865 25.2933 354.668 25.32 354.359 25.32H353.111C352.769 25.32 352.556 25.272 352.471 25.176C352.396 25.0907 352.316 24.92 352.231 24.664L348.167 12.28C348.06 11.9493 347.959 11.576 347.863 11.16C347.777 10.744 347.687 10.3867 347.591 10.088C347.495 9.77867 347.377 9.624 347.239 9.624C347.068 9.624 346.876 9.896 346.663 10.44L341.095 24.648C340.999 24.904 340.913 25.08 340.839 25.176C340.764 25.272 340.529 25.32 340.135 25.32H338.935C338.583 25.32 338.353 25.272 338.247 25.176C338.14 25.08 338.039 24.904 337.943 24.648L330.727 4.232C330.62 3.93333 330.503 3.74133 330.375 3.656C330.247 3.57067 329.98 3.528 329.575 3.528H327.703C327.415 3.528 327.228 3.49067 327.143 3.416C327.057 3.34133 327.014 3.16533 327.014 2.888V1.768C327.014 1.416 327.062 1.20267 327.159 1.128C327.255 1.04266 327.468 0.999998 327.799 0.999998H337.783C338.113 0.999998 338.353 1.05333 338.503 1.16C338.652 1.256 338.727 1.48 338.727 1.832V2.84C338.727 3.14933 338.673 3.34133 338.567 3.416C338.46 3.49067 338.263 3.528 337.975 3.528H336.263C335.847 3.528 335.591 3.576 335.495 3.672C335.409 3.768 335.415 3.97066 335.51 4.28L339.655 16.536C339.772 16.8667 339.873 17.2293 339.959 17.624C340.044 18.008 340.135 18.3387 340.231 18.616C340.327 18.8933 340.439 19.032 340.567 19.032C340.673 19.032 340.775 18.9627 340.871 18.824C340.967 18.6747 341.073 18.4507 341.191 18.152ZM402.051 3.528H399.395C399.139 3.528 398.968 3.48533 398.883 3.4C398.808 3.31467 398.771 3.144 398.771 2.888V1.784C398.771 1.464 398.814 1.256 398.899 1.16C398.984 1.05333 399.182 0.999998 399.491 0.999998H408.259C408.558 0.999998 408.75 1.03733 408.835 1.112C408.931 1.18667 408.979 1.37867 408.979 1.688V2.856C408.979 3.15467 408.931 3.34133 408.835 3.416C408.739 3.49067 408.542 3.528 408.243 3.528H406.259C405.928 3.528 405.71 3.56533 405.603 3.64C405.507 3.71467 405.459 3.92267 405.459 4.264V15.4C405.459 18.8347 404.67 21.384 403.091 23.048C401.512 24.7013 399.091 25.528 395.827 25.528C393.928 25.528 392.35 25.272 391.091 24.76C389.832 24.248 388.835 23.5333 388.099 22.616C387.374 21.6987 386.856 20.616 386.547 19.368C386.238 18.12 386.083 16.7653 386.083 15.304V4.232C386.083 3.90133 386.019 3.704 385.891 3.64C385.763 3.56533 385.55 3.528 385.251 3.528H383.219C382.92 3.528 382.734 3.48533 382.659 3.4C382.595 3.304 382.563 3.10667 382.563 2.808V1.688C382.563 1.38933 382.611 1.20267 382.707 1.128C382.814 1.04266 383.006 0.999998 383.283 0.999998H393.587C393.854 0.999998 394.035 1.03733 394.131 1.112C394.238 1.176 394.291 1.352 394.291 1.64V2.792C394.291 3.112 394.243 3.31467 394.147 3.4C394.051 3.48533 393.843 3.528 393.523 3.528H391.283C390.92 3.528 390.691 3.576 390.595 3.672C390.499 3.75733 390.451 3.98133 390.451 4.344V14.888C390.451 16.4773 390.632 17.864 390.995 19.048C391.358 20.232 391.982 21.1493 392.867 21.8C393.763 22.4507 395.006 22.776 396.595 22.776C398.014 22.776 399.176 22.536 400.083 22.056C401 21.5653 401.678 20.7813 402.115 19.704C402.552 18.616 402.771 17.1813 402.771 15.4V4.28C402.771 3.94933 402.728 3.74133 402.643 3.656C402.568 3.57067 402.371 3.528 402.051 3.528Z" fill="#FAFAFA"/>
</svg>
