<svg width="90" height="72" viewBox="0 0 90 72" fill="none" xmlns="http://www.w3.org/2000/svg">
<rect width="90" height="72" fill="#404040"/>
<path d="M26.5574 45.96C27.4747 45.96 28.2534 45.7947 28.8934 45.464C29.544 45.1333 30.0347 44.664 30.3654 44.056C30.696 43.448 30.8614 42.7227 30.8614 41.88C30.8614 41.0373 30.6694 40.3387 30.2854 39.784C29.912 39.2293 29.4 38.8133 28.7494 38.536C28.0987 38.2587 27.368 38.12 26.5574 38.12H22.6374C22.36 38.12 22.168 38.1787 22.0614 38.296C21.9654 38.4133 21.9174 38.616 21.9174 38.904V45.208C21.9174 45.5067 21.9654 45.7093 22.0614 45.816C22.1574 45.912 22.3494 45.96 22.6374 45.96H26.5574ZM22.7654 35.08H26.0774C26.8027 35.08 27.464 34.9573 28.0614 34.712C28.6694 34.456 29.1547 34.0667 29.5174 33.544C29.88 33.0107 30.0614 32.3227 30.0614 31.48C30.0614 30.6373 29.8907 29.9653 29.5494 29.464C29.208 28.9627 28.7387 28.6 28.1414 28.376C27.544 28.152 26.856 28.04 26.0774 28.04H22.6054C22.3494 28.04 22.168 28.0827 22.0614 28.168C21.9654 28.2427 21.9174 28.408 21.9174 28.664V34.28C21.9174 34.632 21.9654 34.856 22.0614 34.952C22.168 35.0373 22.4027 35.08 22.7654 35.08ZM27.0374 49H13.8054C13.5067 49 13.3147 48.9467 13.2294 48.84C13.144 48.7333 13.1014 48.5253 13.1014 48.216V46.472C13.1014 46.2373 13.144 46.0933 13.2294 46.04C13.3254 45.9867 13.4747 45.96 13.6774 45.96H15.9334C16.2214 45.96 16.408 45.912 16.4934 45.816C16.5787 45.7093 16.6214 45.512 16.6214 45.224V28.76C16.6214 28.472 16.5787 28.28 16.4934 28.184C16.408 28.088 16.2214 28.04 15.9334 28.04H13.7734C13.496 28.04 13.3147 28.008 13.2294 27.944C13.144 27.8693 13.1014 27.6933 13.1014 27.416V25.672C13.1014 25.4053 13.144 25.2293 13.2294 25.144C13.3254 25.048 13.496 25 13.7414 25H26.2374C28.2747 25 29.9814 25.208 31.3574 25.624C32.7334 26.0293 33.768 26.68 34.4614 27.576C35.1654 28.472 35.5174 29.64 35.5174 31.08C35.5174 32.4347 35.176 33.5333 34.4934 34.376C33.8107 35.208 32.8134 35.8213 31.5014 36.216C31.2347 36.2907 31.1014 36.392 31.1014 36.52C31.112 36.6373 31.256 36.728 31.5334 36.792C33.1547 37.1653 34.408 37.8 35.2934 38.696C36.1894 39.592 36.6374 40.7867 36.6374 42.28C36.6374 43.9333 36.28 45.2507 35.5654 46.232C34.8614 47.2133 33.8 47.9227 32.3814 48.36C30.9627 48.7867 29.1814 49 27.0374 49ZM51.9994 41.016L56.0314 31.016C56.17 30.696 56.2714 30.4347 56.3354 30.232C56.3994 30.0293 56.3727 29.752 56.2554 29.4L55.9514 28.504C55.8874 28.312 55.8074 28.1893 55.7114 28.136C55.626 28.072 55.4554 28.04 55.1994 28.04H53.5674C53.2794 28.04 53.1034 27.992 53.0394 27.896C52.986 27.8 52.9594 27.6027 52.9594 27.304V25.912C52.9594 25.5173 53.002 25.2667 53.0874 25.16C53.1727 25.0533 53.402 25 53.7754 25H62.9274C63.194 25 63.4127 25.032 63.5834 25.096C63.754 25.16 63.8394 25.336 63.8394 25.624V27.16C63.8394 27.512 63.7807 27.7467 63.6634 27.864C63.5567 27.9813 63.3274 28.04 62.9754 28.04H62.0954C61.69 28.04 61.4394 28.088 61.3434 28.184C61.258 28.28 61.2634 28.4773 61.3594 28.776L64.6714 39.512C64.7674 39.8 64.8527 40.1253 64.9274 40.488C65.002 40.8507 65.0767 41.1653 65.1514 41.432C65.2367 41.688 65.3274 41.816 65.4234 41.816C65.498 41.816 65.5727 41.7573 65.6474 41.64C65.7327 41.5227 65.8287 41.3093 65.9354 41L70.0474 28.824C70.154 28.504 70.202 28.296 70.1914 28.2C70.1807 28.0933 69.9407 28.04 69.4714 28.04H67.7914C67.4714 28.04 67.2634 27.9973 67.1674 27.912C67.082 27.816 67.0394 27.5973 67.0394 27.256V25.864C67.0394 25.4907 67.082 25.256 67.1674 25.16C67.2527 25.0533 67.4767 25 67.8394 25H76.0794C76.41 25 76.6394 25.0373 76.7674 25.112C76.8954 25.176 76.9594 25.3787 76.9594 25.72V27.352C76.9594 27.6613 76.9114 27.8533 76.8154 27.928C76.73 28.0027 76.5274 28.04 76.2074 28.04H74.1594C73.754 28.04 73.5034 28.0987 73.4074 28.216C73.3114 28.3227 73.2154 28.52 73.1194 28.808L66.3514 48.792C66.2554 49.0373 66.1594 49.1867 66.0634 49.24C65.9674 49.2933 65.7487 49.32 65.4074 49.32H63.7754C63.4127 49.32 63.1887 49.2667 63.1034 49.16C63.0287 49.064 62.9434 48.8827 62.8474 48.616L58.9274 37.048C58.81 36.7173 58.7034 36.3387 58.6074 35.912C58.5114 35.4853 58.4047 35.112 58.2874 34.792C58.1807 34.4613 58.058 34.296 57.9194 34.296C57.7487 34.296 57.562 34.5467 57.3594 35.048L51.7434 48.616C51.6367 48.8827 51.5407 49.064 51.4554 49.16C51.3807 49.2667 51.1354 49.32 50.7194 49.32H49.1674C48.762 49.32 48.5007 49.2773 48.3834 49.192C48.2767 49.1067 48.17 48.92 48.0634 48.632L41.0074 28.792C40.89 28.472 40.7727 28.2693 40.6554 28.184C40.538 28.088 40.2554 28.04 39.8074 28.04H37.9834C37.6847 28.04 37.4927 28.0027 37.4074 27.928C37.322 27.8533 37.2794 27.6667 37.2794 27.368V25.784C37.2794 25.4213 37.3327 25.2027 37.4394 25.128C37.5567 25.0427 37.786 25 38.1274 25H48.7674C49.13 25 49.386 25.048 49.5354 25.144C49.6847 25.2293 49.7594 25.4693 49.7594 25.864V27.288C49.7594 27.6187 49.7114 27.8267 49.6154 27.912C49.5194 27.9973 49.306 28.04 48.9754 28.04H47.5514C47.178 28.04 46.9327 28.0827 46.8154 28.168C46.7087 28.2533 46.7034 28.44 46.7994 28.728L50.4314 39.464C50.5487 39.784 50.6447 40.136 50.7194 40.52C50.8047 40.8933 50.8954 41.2187 50.9914 41.496C51.0874 41.7627 51.1994 41.896 51.3274 41.896C51.4554 41.896 51.5674 41.8213 51.6634 41.672C51.77 41.5227 51.882 41.304 51.9994 41.016Z" fill="#FAFAFA"/>
</svg>
