<svg width="32" height="33" viewBox="0 0 32 33" fill="none" xmlns="http://www.w3.org/2000/svg">
<g id="devicon:storybook" clip-path="url(#clip0_252_1926)">
<path id="Vector" d="M26.8365 1.00297L25.108 1.11072L25.2427 4.70497C25.2497 4.90372 25.0205 5.01972 24.8642 4.89647L23.7067 3.98397L22.3355 5.02447C22.3002 5.05128 22.258 5.06749 22.2138 5.07119C22.1696 5.0749 22.1253 5.06595 22.086 5.04539C22.0467 5.02483 22.0141 4.99351 21.992 4.9551C21.9698 4.91669 21.9591 4.87276 21.961 4.82847L22.1152 1.29772L4.96825 2.36997C4.56036 2.39538 4.17857 2.57924 3.90438 2.8823C3.6302 3.18535 3.48534 3.58358 3.50075 3.99197L4.46575 29.7015C4.48048 30.0943 4.6424 30.4672 4.91936 30.7461C5.19632 31.0251 5.56805 31.1897 5.96075 31.2072L26.8637 32.1457C27.0751 32.1551 27.2861 32.1215 27.4841 32.0472C27.6821 31.9729 27.863 31.8593 28.016 31.7132C28.169 31.5672 28.2908 31.3916 28.374 31.1971C28.4572 31.0026 28.5 30.7933 28.5 30.5817V2.56597C28.5001 2.35205 28.4564 2.14038 28.3714 1.94405C28.2865 1.74771 28.1622 1.57087 28.0062 1.42447C27.8504 1.27798 27.6662 1.165 27.4651 1.0925C27.2639 1.02 27.0499 0.989532 26.8365 1.00297ZM16.4715 6.29972C20.5485 6.29972 22.775 8.48047 22.775 12.6295C22.224 13.0577 18.12 13.3495 18.12 12.7402C18.2065 10.4152 17.1657 10.3135 16.5875 10.3135C16.038 10.3135 15.1127 10.479 15.1127 11.7245C15.1127 14.7965 23.0352 14.6307 23.0352 20.8305C23.0352 24.318 20.2015 26.2442 16.5875 26.2442C12.8575 26.2442 9.59825 24.7352 9.96625 19.5035C10.1107 18.8892 14.8525 19.0352 14.8525 19.5035C14.795 21.6622 15.2862 22.2972 16.5292 22.2972C17.4835 22.2972 17.9175 21.7715 17.9175 20.8857C17.9175 17.7305 10.1107 17.62 10.1107 11.8355C10.1107 8.51422 12.395 6.29972 16.4715 6.29972Z" fill="#FF4785"/>
</g>
<defs>
<clipPath id="clip0_252_1926">
<rect width="32" height="32" fill="white" transform="translate(0 0.5)"/>
</clipPath>
</defs>
</svg>
