<svg width="48" height="49" viewBox="0 0 48 49" fill="none" xmlns="http://www.w3.org/2000/svg">
<g id="devicon:figma" clip-path="url(#clip0_478_798)">
<path id="Vector" d="M24.625 40.8125C24.625 44.9989 21.2489 48.375 17.0625 48.375C12.8761 48.375 9.5 44.9989 9.5 40.8125C9.5 36.6261 12.8761 33.25 17.0625 33.25H24.625V40.8125Z" fill="#FAFAFA" stroke="#404040"/>
<path id="Vector_2" d="M9.5 24.6875C9.5 20.5011 12.8761 17.125 17.0625 17.125H24.625V32.25H17.0625C12.8761 32.25 9.5 28.8739 9.5 24.6875Z" fill="#FAFAFA" stroke="#404040"/>
<path id="Vector_3" d="M9.5 8.5625C9.5 4.37614 12.8761 1 17.0625 1H24.625V16.125H17.0625C12.8761 16.125 9.5 12.7489 9.5 8.5625Z" fill="#FAFAFA" stroke="#404040"/>
<path id="Vector_4" d="M25.625 1H33.1875C37.3739 1 40.75 4.37614 40.75 8.5625C40.75 12.7489 37.3739 16.125 33.1875 16.125H25.625V1Z" fill="#FAFAFA" stroke="#404040"/>
<path id="Vector_5" d="M40.75 24.6875C40.75 28.8739 37.3739 32.25 33.1875 32.25C29.0011 32.25 25.625 28.8739 25.625 24.6875C25.625 20.5011 29.0011 17.125 33.1875 17.125C37.3739 17.125 40.75 20.5011 40.75 24.6875Z" fill="#FAFAFA" stroke="#404040"/>
</g>
<defs>
<clipPath id="clip0_478_798">
<rect width="48" height="48" fill="white" transform="translate(0 0.5)"/>
</clipPath>
</defs>
</svg>
