<svg width="25" height="25" viewBox="0 0 25 25" fill="none" xmlns="http://www.w3.org/2000/svg">
<g id="devicon:figma" clip-path="url(#clip0_259_190)">
<path id="Vector" d="M12.5625 20.6562C12.5625 22.6114 10.9864 24.1875 9.03125 24.1875C7.07614 24.1875 5.5 22.6114 5.5 20.6562C5.5 18.7011 7.07614 17.125 9.03125 17.125H12.5625V20.6562Z" fill="#FAFAFA" stroke="#404040"/>
<path id="Vector_2" d="M5.5 12.5938C5.5 10.6386 7.07614 9.0625 9.03125 9.0625H12.5625V16.125H9.03125C7.07614 16.125 5.5 14.5489 5.5 12.5938Z" fill="#FAFAFA" stroke="#404040"/>
<path id="Vector_3" d="M5.5 4.53125C5.5 2.57614 7.07614 1 9.03125 1H12.5625V8.0625H9.03125C7.07614 8.0625 5.5 6.48636 5.5 4.53125Z" fill="#FAFAFA" stroke="#404040"/>
<path id="Vector_4" d="M13.5625 1H17.0938C19.0489 1 20.625 2.57614 20.625 4.53125C20.625 6.48636 19.0489 8.0625 17.0938 8.0625H13.5625V1Z" fill="#FAFAFA" stroke="#404040"/>
<path id="Vector_5" d="M20.625 12.5938C20.625 14.5489 19.0489 16.125 17.0938 16.125C15.1386 16.125 13.5625 14.5489 13.5625 12.5938C13.5625 10.6386 15.1386 9.0625 17.0938 9.0625C19.0489 9.0625 20.625 10.6386 20.625 12.5938Z" fill="#FAFAFA" stroke="#404040"/>
</g>
<defs>
<clipPath id="clip0_259_190">
<rect width="24" height="24" fill="white" transform="translate(0.5 0.5)"/>
</clipPath>
</defs>
</svg>
