<svg width="32" height="33" viewBox="0 0 32 33" fill="none" xmlns="http://www.w3.org/2000/svg">
<g id="devicon-plain:githubactions" clip-path="url(#clip0_252_2174)">
<path id="Vector" d="M6.6665 0.5C2.9925 0.5 0 3.4925 0 7.1665C0 10.384 2.29525 13.0793 5.3335 13.699V23.1665C5.3335 26.109 7.7535 28.5 10.6665 28.5H10.7153C11.0408 30.7558 12.9902 32.5 15.3335 32.5C17.903 32.5 20 30.403 20 27.8335C20 25.264 17.903 23.1665 15.3335 23.1665C12.9905 23.1665 11.041 24.9107 10.7153 27.1665H10.6665C8.48225 27.1665 6.6665 25.3785 6.6665 23.1665V16.4447C7.09795 16.885 7.61299 17.2346 8.18139 17.4731C8.74979 17.7115 9.3601 17.8341 9.9765 17.8335H10.7153C11.041 20.0893 12.9902 21.8335 15.3335 21.8335C17.6765 21.8335 19.6257 20.0893 19.951 17.8335H22.7153C23.041 20.0893 24.9902 21.8335 27.3335 21.8335C29.903 21.8335 32 19.736 32 17.1665C32 14.597 29.903 12.5 27.3335 12.5C24.9902 12.5 23.0408 14.2443 22.7153 16.5H19.9513C19.626 14.2443 17.6768 12.5 15.3335 12.5C12.9902 12.5 11.0408 14.2443 10.7153 16.5H9.9765C8.36825 16.5 7.02825 15.3527 6.7295 13.832C10.3745 13.798 13.3335 10.8195 13.3335 7.1665C13.3335 3.4925 10.3405 0.5 6.6665 0.5ZM6.6665 1.8335C7.36725 1.83212 8.06138 1.96911 8.70906 2.23662C9.35674 2.50413 9.94523 2.8969 10.4408 3.39238C10.9363 3.88787 11.3291 4.47632 11.5967 5.12398C11.8643 5.77163 12.0013 6.46575 12 7.1665C12.0013 7.86728 11.8643 8.56141 11.5967 9.2091C11.3291 9.85678 10.9363 10.4453 10.4408 10.9408C9.94527 11.4363 9.35678 11.8291 8.7091 12.0967C8.06141 12.3643 7.36728 12.5013 6.6665 12.5C5.96575 12.5013 5.27163 12.3643 4.62398 12.0967C3.97632 11.8291 3.38787 11.4363 2.89238 10.9408C2.3969 10.4452 2.00413 9.85674 1.73662 9.20906C1.46911 8.56138 1.33212 7.86725 1.3335 7.1665C1.33212 6.46577 1.46911 5.77167 1.73663 5.12401C2.00415 4.47636 2.39692 3.8879 2.89241 3.39241C3.3879 2.89692 3.97636 2.50415 4.62401 2.23663C5.27167 1.96911 5.96577 1.83212 6.6665 1.8335ZM5.36275 3.71875C4.6675 3.72225 4 4.28075 4 5.0415V9.30225C4 10.313 5.17725 10.968 6.03625 10.4355L9.44475 8.32175C10.259 7.81675 10.2633 6.57125 9.45275 6.0605L6.044 3.913C5.84026 3.78423 5.60377 3.71679 5.36275 3.71875ZM5.3335 5.0415L8.74225 7.1885L5.3335 9.30225V5.0415ZM15.3335 13.8335C15.7716 13.8321 16.2056 13.9174 16.6106 14.0845C17.0156 14.2515 17.3835 14.4969 17.6933 14.8067C18.0031 15.1165 18.2485 15.4844 18.4155 15.8894C18.5826 16.2944 18.6679 16.7284 18.6665 17.1665C18.6679 17.6046 18.5826 18.0386 18.4156 18.4437C18.2485 18.8487 18.0031 19.2167 17.6933 19.5265C17.3836 19.8363 17.0156 20.0818 16.6106 20.2489C16.2056 20.4159 15.7716 20.5013 15.3335 20.5C14.8954 20.5013 14.4613 20.416 14.0563 20.2489C13.6512 20.0819 13.2832 19.8364 12.9734 19.5266C12.6636 19.2168 12.4181 18.8488 12.2511 18.4437C12.084 18.0387 11.9987 17.6046 12 17.1665C11.9987 16.7284 12.0841 16.2944 12.2511 15.8894C12.4182 15.4844 12.6637 15.1164 12.9735 14.8067C13.2833 14.4969 13.6513 14.2515 14.0563 14.0844C14.4614 13.9174 14.8954 13.8321 15.3335 13.8335ZM27.3335 13.8335C27.7716 13.8321 28.2056 13.9174 28.6106 14.0844C29.0156 14.2514 29.3836 14.4968 29.6934 14.8066C30.0032 15.1164 30.2486 15.4844 30.4156 15.8894C30.5826 16.2944 30.6679 16.7284 30.6665 17.1665C30.6679 17.6046 30.5826 18.0386 30.4156 18.4437C30.2485 18.8487 30.0031 19.2167 29.6933 19.5265C29.3836 19.8363 29.0156 20.0818 28.6106 20.2489C28.2056 20.4159 27.7716 20.5013 27.3335 20.5C26.8954 20.5013 26.4613 20.416 26.0563 20.2489C25.6512 20.0819 25.2832 19.8364 24.9734 19.5266C24.6636 19.2168 24.4181 18.8488 24.2511 18.4437C24.084 18.0387 23.9987 17.6046 24 17.1665C23.9987 16.7284 24.0841 16.2944 24.2511 15.8894C24.4182 15.4844 24.6637 15.1164 24.9735 14.8067C25.2833 14.4969 25.6513 14.2515 26.0563 14.0844C26.4614 13.9174 26.8954 13.8321 27.3335 13.8335ZM16.6915 15.5712C16.6039 15.5712 16.5172 15.5884 16.4362 15.6218C16.3553 15.6553 16.2817 15.7044 16.2197 15.7662L14.6447 17.3398L14.1215 16.8188C13.9963 16.694 13.8266 16.624 13.6498 16.6243C13.473 16.6246 13.3036 16.6951 13.1788 16.8202C13.117 16.8823 13.068 16.9559 13.0346 17.0369C13.0013 17.1178 12.9842 17.2046 12.9844 17.2922C12.9846 17.3797 13.002 17.4664 13.0357 17.5472C13.0694 17.6281 13.1187 17.7015 13.1807 17.7633L14.1742 18.7533C14.2993 18.8778 14.4686 18.9477 14.6451 18.9477C14.8215 18.9477 14.9908 18.8776 15.1158 18.753L17.162 16.7095C17.224 16.6476 17.2731 16.5741 17.3067 16.4933C17.3402 16.4124 17.3575 16.3257 17.3576 16.2381C17.3576 16.1505 17.3404 16.0638 17.3069 15.9829C17.2735 15.902 17.2244 15.8284 17.1625 15.7665C17.0375 15.6417 16.8681 15.5713 16.6915 15.5712ZM28.6915 15.5712C28.6039 15.5712 28.5172 15.5884 28.4362 15.6218C28.3553 15.6553 28.2817 15.7044 28.2197 15.7662L26.6448 17.3398L26.1215 16.8188C25.9963 16.694 25.8266 16.624 25.6498 16.6243C25.473 16.6246 25.3036 16.6951 25.1787 16.8202C25.117 16.8823 25.068 16.9559 25.0346 17.0369C25.0013 17.1178 24.9842 17.2046 24.9844 17.2922C24.9846 17.3797 25.002 17.4664 25.0357 17.5472C25.0694 17.6281 25.1187 17.7015 25.1807 17.7633L26.1742 18.7533C26.2993 18.8778 26.4686 18.9477 26.6451 18.9477C26.8215 18.9477 26.9908 18.8776 27.1157 18.753L29.162 16.7095C29.224 16.6476 29.2731 16.5741 29.3067 16.4933C29.3402 16.4124 29.3575 16.3257 29.3576 16.2381C29.3576 16.1505 29.3404 16.0638 29.3069 15.9829C29.2735 15.902 29.2244 15.8284 29.1625 15.7665C29.0375 15.6417 28.8681 15.5713 28.6915 15.5712ZM27.3335 23.1665C24.9877 23.1665 23.0365 24.9147 22.7143 27.1742C22.6922 27.1722 22.6701 27.1713 22.648 27.1715L21.973 27.194C21.7964 27.1998 21.6292 27.2755 21.5084 27.4045C21.3875 27.5334 21.3228 27.7051 21.3285 27.8818C21.3343 28.0584 21.41 28.2256 21.5391 28.3464C21.6681 28.4673 21.8398 28.532 22.0165 28.5263L22.6915 28.5045C22.6996 28.5041 22.7077 28.5036 22.7157 28.503C23.0425 30.7572 24.9912 32.5 27.3335 32.5C29.903 32.5 32 30.403 32 27.8335C32 25.264 29.903 23.1665 27.3335 23.1665ZM15.3335 24.5C15.7716 24.4987 16.2056 24.5841 16.6106 24.7511C17.0156 24.9182 17.3836 25.1637 17.6933 25.4735C18.0031 25.7833 18.2485 26.1513 18.4156 26.5563C18.5826 26.9614 18.6679 27.3954 18.6665 27.8335C18.6679 28.2716 18.5826 28.7056 18.4156 29.1106C18.2486 29.5156 18.0032 29.8836 17.6934 30.1934C17.3836 30.5032 17.0156 30.7486 16.6106 30.9156C16.2056 31.0826 15.7716 31.1679 15.3335 31.1665C14.8954 31.1679 14.4614 31.0826 14.0563 30.9156C13.6513 30.7485 13.2833 30.5031 12.9735 30.1933C12.6637 29.8836 12.4182 29.5156 12.2511 29.1106C12.0841 28.7056 11.9987 28.2716 12 27.8335C11.9987 27.3954 12.084 26.9613 12.2511 26.5563C12.4181 26.1512 12.6636 25.7832 12.9734 25.4734C13.2832 25.1636 13.6512 24.9181 14.0563 24.7511C14.4613 24.584 14.8954 24.4987 15.3335 24.5ZM27.3335 24.5C27.7716 24.4987 28.2056 24.5841 28.6106 24.7511C29.0156 24.9182 29.3836 25.1637 29.6933 25.4735C30.0031 25.7833 30.2485 26.1513 30.4156 26.5563C30.5826 26.9614 30.6679 27.3954 30.6665 27.8335C30.6679 28.2716 30.5826 28.7056 30.4156 29.1106C30.2486 29.5156 30.0032 29.8836 29.6934 30.1934C29.3836 30.5032 29.0156 30.7486 28.6106 30.9156C28.2056 31.0826 27.7716 31.1679 27.3335 31.1665C26.8954 31.1679 26.4614 31.0826 26.0563 30.9156C25.6513 30.7485 25.2833 30.5031 24.9735 30.1933C24.6637 29.8836 24.4182 29.5156 24.2511 29.1106C24.0841 28.7056 23.9987 28.2716 24 27.8335C23.9987 27.3954 24.084 26.9613 24.2511 26.5563C24.4181 26.1512 24.6636 25.7832 24.9734 25.4734C25.2832 25.1636 25.6512 24.9181 26.0563 24.7511C26.4613 24.584 26.8954 24.4987 27.3335 24.5ZM14 26.8335C13.4517 26.8335 13 27.2852 13 27.8335C13 28.3822 13.452 28.8335 14 28.8335C14.548 28.8335 15 28.3822 15 27.8335C15 27.2852 14.5483 26.8335 14 26.8335ZM16.6665 26.8335C16.1182 26.8335 15.6665 27.2852 15.6665 27.8335C15.6665 28.3822 16.1185 28.8335 16.6665 28.8335C17.2145 28.8335 17.6665 28.3822 17.6665 27.8335C17.6665 27.2852 17.2148 26.8335 16.6665 26.8335ZM14 27.5C14.1875 27.5 14.3335 27.6462 14.3335 27.8335C14.3335 28.0217 14.1877 28.1665 14 28.1665C13.8125 28.1665 13.6665 28.0215 13.6665 27.8335C13.6665 27.646 13.8127 27.5 14 27.5ZM16.6665 27.5C16.854 27.5 17 27.6462 17 27.8335C17 28.0217 16.8542 28.1665 16.6665 28.1665C16.479 28.1665 16.3335 28.0215 16.3335 27.8335C16.3335 27.646 16.4792 27.5 16.6665 27.5Z" fill="black"/>
</g>
<defs>
<clipPath id="clip0_252_2174">
<rect width="32" height="32" fill="white" transform="translate(0 0.5)"/>
</clipPath>
</defs>
</svg>
