<svg width="25" height="25" viewBox="0 0 25 25" fill="none" xmlns="http://www.w3.org/2000/svg">
<g id="heroicons-outline/globe-alt">
<path id="Vector" d="M12.5 21.5C16.6926 21.5 20.2156 18.6332 21.2157 14.7529M12.5 21.5C8.30742 21.5 4.78442 18.6332 3.7843 14.7529M12.5 21.5C14.9853 21.5 17 17.4706 17 12.5C17 7.52944 14.9853 3.5 12.5 3.5M12.5 21.5C10.0147 21.5 8 17.4706 8 12.5C8 7.52944 10.0147 3.5 12.5 3.5M12.5 3.5C15.8652 3.5 18.799 5.34694 20.3431 8.08245M12.5 3.5C9.13481 3.5 6.20099 5.34694 4.65692 8.08245M20.3431 8.08245C18.2397 9.90039 15.4983 11 12.5 11C9.50172 11 6.76027 9.90039 4.65692 8.08245M20.3431 8.08245C21.0797 9.38743 21.5 10.8946 21.5 12.5C21.5 13.278 21.4013 14.0329 21.2157 14.7529M21.2157 14.7529C18.6334 16.1847 15.6619 17 12.5 17C9.3381 17 6.36662 16.1847 3.7843 14.7529M3.7843 14.7529C3.59871 14.0329 3.5 13.278 3.5 12.5C3.5 10.8946 3.92032 9.38743 4.65692 8.08245" stroke="#FAFAFA" stroke-width="1.5" stroke-linecap="round" stroke-linejoin="round"/>
</g>
</svg>
