<svg width="32" height="33" viewBox="0 0 32 33" fill="none" xmlns="http://www.w3.org/2000/svg">
<g id="devicon:jira">
<path id="Vector" d="M27.0058 4.5H15.4513C15.4513 7.38 17.7823 9.712 20.663 9.712H22.788V11.7685C22.788 14.6485 25.12 16.9805 28 16.9805V5.49425C27.9998 5.23062 27.895 4.97784 27.7086 4.79143C27.5222 4.60501 27.2694 4.5002 27.0058 4.5Z" fill="#2684FF"/>
<path id="Vector_2" d="M21.2802 10.26H9.72549C9.72549 13.1398 12.0567 15.4718 14.9365 15.4718H17.0625V17.5283C17.0625 20.4083 19.3945 22.7403 22.2745 22.7403V11.254C22.2741 10.9904 22.1692 10.7378 21.9828 10.5514C21.7965 10.365 21.5438 10.2604 21.2802 10.26Z" fill="url(#paint0_linear_252_2164)"/>
<path id="Vector_3" d="M15.5548 16.0195H4C4 18.9005 6.331 21.2315 9.212 21.2315H11.337V23.289C11.337 26.169 13.669 28.5 16.5487 28.5V17.0148C16.5485 16.7511 16.4437 16.4984 16.2574 16.3119C16.0711 16.1253 15.8184 16.0201 15.5548 16.0195Z" fill="url(#paint1_linear_252_2164)"/>
</g>
<defs>
<linearGradient id="paint0_linear_252_2164" x1="22.034" y1="10.273" x2="17.118" y2="15.342" gradientUnits="userSpaceOnUse">
<stop offset="0.176" stop-color="#0052CC"/>
<stop offset="1" stop-color="#2684FF"/>
</linearGradient>
<linearGradient id="paint1_linear_252_2164" x1="16.641" y1="16.064" x2="10.957" y2="21.594" gradientUnits="userSpaceOnUse">
<stop offset="0.176" stop-color="#0052CC"/>
<stop offset="1" stop-color="#2684FF"/>
</linearGradient>
</defs>
</svg>
