<svg width="33" height="33" viewBox="0 0 33 33" fill="none" xmlns="http://www.w3.org/2000/svg">
<g id="mdi:jira">
<path id="Vector" d="M15.8733 3.16663C15.8733 6.36663 18.5 8.96663 21.6733 8.96663H24.0467V11.2333C24.0467 14.4333 26.6333 17.02 29.8333 17.0333V4.28663C29.8333 3.98958 29.7153 3.70471 29.5053 3.49467C29.2952 3.28463 29.0104 3.16663 28.7133 3.16663H15.8733ZM9.52666 9.56663C9.53437 11.099 10.1465 12.5664 11.2301 13.6499C12.3136 14.7334 13.781 15.3456 15.3133 15.3533H17.7133V17.6466C17.721 19.179 18.3332 20.6464 19.4167 21.7299C20.5003 22.8134 21.9676 23.4256 23.5 23.4333V10.6733C23.4962 10.381 23.3784 10.1017 23.1717 9.89496C22.9649 9.68824 22.6856 9.57043 22.3933 9.56663H9.52666ZM3.16666 15.9666C3.16666 19.1666 5.76666 21.7533 8.96666 21.7533H11.34V24.0466C11.3533 27.2333 13.94 29.8333 17.1267 29.8333V17.0733C17.1267 16.7763 17.0087 16.4914 16.7986 16.2813C16.5886 16.0713 16.3037 15.9533 16.0067 15.9533L3.16666 15.9666Z" fill="black"/>
</g>
</svg>
