<svg width="33" height="32" viewBox="0 0 33 32" fill="none" xmlns="http://www.w3.org/2000/svg">
<g id="mdi:linkedin">
<path id="Vector" d="M25.1667 25.1667H25.6667V24.6667V17.6C25.6667 16.3146 25.156 15.0818 24.2471 14.1729C23.3382 13.264 22.1054 12.7533 20.82 12.7533C19.9432 12.7533 18.9838 13.1068 18.2267 13.7019V13.5067V13.0067H17.7267H14.0067H13.5067V13.5067V24.6667V25.1667H14.0067H17.7267H18.2267V24.6667V18.0933C18.2267 17.3381 18.8341 16.7267 19.58 16.7267C19.9425 16.7267 20.2901 16.8707 20.5464 17.127C20.8027 17.3833 20.9467 17.7309 20.9467 18.0933V24.6667V25.1667H21.4467H25.1667ZM11.5267 25.1667H12.0267V24.6667V13.5067V13.0067H11.5267H7.83333H7.33333V13.5067V24.6667V25.1667H7.83333H11.5267ZM25.8333 4.5C26.408 4.5 26.9591 4.72827 27.3654 5.1346C27.7717 5.54093 28 6.09203 28 6.66667V25.3333C28 25.908 27.7717 26.4591 27.3654 26.8654C26.9591 27.2717 26.408 27.5 25.8333 27.5H7.16667C6.59203 27.5 6.04093 27.2717 5.6346 26.8654C5.22827 26.4591 5 25.908 5 25.3333V6.66667C5 6.09203 5.22827 5.54093 5.6346 5.1346C6.04093 4.72827 6.59203 4.5 7.16667 4.5H25.8333ZM9.67333 11.9133C10.4 11.9133 11.097 11.6247 11.6108 11.1108C12.1247 10.597 12.4133 9.90003 12.4133 9.17333C12.4133 7.66106 11.1933 6.42 9.67333 6.42C8.9431 6.42 8.24278 6.71008 7.72643 7.22643C7.21008 7.74278 6.92 8.4431 6.92 9.17333C6.92 10.6933 8.16106 11.9133 9.67333 11.9133Z" fill="#FAFAFA" stroke="#FAFAFA"/>
</g>
</svg>
