<svg width="36" height="33" viewBox="0 0 36 33" fill="none" xmlns="http://www.w3.org/2000/svg">
<g id="logos:react" clip-path="url(#clip0_252_2179)">
<path id="Vector" d="M29.5765 10.8612C29.1941 10.73 28.8085 10.6085 28.42 10.4967C28.4852 10.2301 28.5453 9.96664 28.5987 9.70784C29.4742 5.45787 28.9018 2.03401 26.9469 0.906712C25.0725 -0.173989 22.0071 0.952888 18.9112 3.6472C18.6061 3.91322 18.3078 4.18689 18.0165 4.46798C17.8215 4.28106 17.623 4.09778 17.4212 3.91822C14.1766 1.03738 10.9244 -0.176796 8.97157 0.95373C7.09886 2.0378 6.54434 5.25647 7.33255 9.28426C7.41097 9.68317 7.49951 10.08 7.59809 10.4744C7.13774 10.6052 6.69353 10.7445 6.26841 10.8927C2.46434 12.219 0.0350037 14.2974 0.0350037 16.4534C0.0350037 18.68 2.643 20.9135 6.60511 22.2677C6.92632 22.377 7.25021 22.4784 7.57648 22.5716C7.47052 22.9964 7.37644 23.424 7.29437 23.8541C6.54293 27.812 7.12974 30.9546 8.99739 32.0318C10.9264 33.1442 14.164 32.0009 17.3164 29.2451C17.572 29.0211 17.822 28.7907 18.0662 28.5542C18.3816 28.8585 18.7055 29.154 19.0374 29.4403C22.0911 32.068 25.107 33.129 26.9728 32.0489C28.9 30.9332 29.5264 27.5572 28.7132 23.4499C28.6491 23.1281 28.5773 22.8079 28.4977 22.4896C28.7251 22.4222 28.9483 22.3529 29.1658 22.2807C33.2848 20.9161 35.9648 18.7098 35.9648 16.4534C35.9648 14.2896 33.457 12.1971 29.5765 10.8612ZM28.6831 20.8239C28.4867 20.8889 28.2851 20.9516 28.0796 21.0127C27.6249 19.5731 27.0113 18.0424 26.2603 16.4608C26.9769 14.917 27.5669 13.4058 28.0089 11.9756C28.3765 12.082 28.7331 12.1942 29.077 12.3125C32.4019 13.4572 34.43 15.1494 34.43 16.4534C34.43 17.8423 32.2396 19.6454 28.6831 20.8239ZM27.2075 23.748C27.5671 25.5641 27.6183 27.2062 27.3801 28.49C27.1662 29.6436 26.7359 30.4125 26.2037 30.7206C25.0715 31.376 22.65 30.5241 20.0385 28.2768C19.7298 28.0106 19.4285 27.7359 19.1351 27.453C20.1476 26.3457 21.1594 25.0586 22.1469 23.629C23.8838 23.4749 25.5248 23.2228 27.013 22.8788C27.0847 23.1669 27.1495 23.4568 27.2075 23.748ZM12.2843 30.6073C11.178 30.9979 10.2969 31.0092 9.76427 30.7021C8.63093 30.0485 8.15978 27.5251 8.80244 24.1404C8.87884 23.7404 8.96631 23.3427 9.06476 22.9476C10.5365 23.2732 12.1655 23.5073 13.9066 23.6485C14.9008 25.0473 15.9418 26.3331 16.9909 27.459C16.768 27.6747 16.5397 27.8849 16.3064 28.0895C14.9123 29.308 13.5154 30.1725 12.2843 30.6073ZM7.10167 20.8153C5.34967 20.2165 3.90279 19.4382 2.91107 18.589C2.01985 17.8259 1.57002 17.0681 1.57002 16.4534C1.57002 15.145 3.52048 13.4763 6.77367 12.3421C7.16848 12.2045 7.58167 12.0747 8.01044 11.9529C8.46013 13.4153 9.04988 14.9445 9.7616 16.4907C9.04062 18.0598 8.44244 19.6134 7.98841 21.0931C7.6906 21.0078 7.39493 20.9152 7.10167 20.8153ZM8.83893 8.98938C8.16371 5.53857 8.61213 2.93548 9.74069 2.28215C10.9427 1.58629 13.6006 2.57843 16.4022 5.06601C16.5848 5.22859 16.7646 5.39447 16.9412 5.56355C15.8973 6.68454 14.8659 7.96075 13.8805 9.35134C12.1907 9.50798 10.5731 9.75948 9.08595 10.0965C8.99433 9.72962 8.91196 9.36038 8.83893 8.98938ZM24.3375 12.8165C23.9862 12.2097 23.6219 11.6106 23.2448 11.0196C24.3912 11.1645 25.4896 11.357 26.521 11.5922C26.2114 12.5847 25.8255 13.6224 25.3711 14.6862C25.0391 14.0562 24.6944 13.4328 24.3375 12.8165ZM18.0172 6.66054C18.7251 7.42755 19.4342 8.28384 20.1316 9.21296C18.7168 9.14614 17.2997 9.14586 15.885 9.21212C16.5831 8.29155 17.2982 7.4364 18.0172 6.66054ZM11.6563 12.827C11.3038 13.4383 10.9656 14.0578 10.642 14.685C10.1951 13.6249 9.81269 12.5825 9.50041 11.5759C10.5255 11.3466 11.6187 11.1591 12.7578 11.0167C12.3765 11.6114 12.0093 12.2151 11.6563 12.827ZM12.7905 21.9992C11.6137 21.8678 10.5041 21.69 9.47921 21.4669C9.79641 20.4423 10.1873 19.3777 10.6438 18.2949C10.9687 18.9225 11.3083 19.5424 11.6624 20.154C12.0264 20.7828 12.4034 21.3986 12.7905 21.9992ZM18.0596 26.3543C17.332 25.5695 16.6064 24.7011 15.8977 23.7672C16.5857 23.7942 17.2871 23.8079 17.9999 23.8079C18.7323 23.8079 19.4562 23.7915 20.1688 23.7598C19.4691 24.7105 18.7627 25.5801 18.0596 26.3543ZM25.3856 18.2396C25.8659 19.3344 26.2707 20.3933 26.5921 21.4003C25.5504 21.6381 24.4256 21.8295 23.2405 21.9717C23.6202 21.3697 23.988 20.7601 24.3435 20.1435C24.7049 19.5167 25.0524 18.8819 25.3856 18.2396ZM23.014 19.3766C22.4697 20.3221 21.8948 21.2496 21.2903 22.1577C20.1952 22.2352 19.0977 22.2737 17.9999 22.2732C16.8817 22.2732 15.7942 22.2384 14.7469 22.1704C14.1265 21.2644 13.5407 20.3353 12.9907 19.385C12.4432 18.4398 11.9319 17.4741 11.4577 16.49C11.9307 15.5057 12.4406 14.5396 12.9862 13.5936L12.986 13.5937C13.5314 12.6475 14.1126 11.7224 14.7282 10.8203C15.7967 10.7394 16.8924 10.6973 17.9998 10.6973C19.1122 10.6973 20.2095 10.7398 21.2777 10.8212C21.8871 11.722 22.4645 12.644 23.0089 13.5854C23.5563 14.5293 24.0729 15.4908 24.5578 16.4683C24.0779 17.4557 23.5629 18.4258 23.014 19.3766ZM26.1803 2.2364C27.3834 2.93029 27.8513 5.72847 27.0954 9.39794C27.0471 9.63205 26.9929 9.8705 26.934 10.1123C25.4431 9.76819 23.8245 9.51233 22.1297 9.35331C21.1425 7.94741 20.1195 6.66924 19.0925 5.56271C19.3617 5.30327 19.6372 5.05057 19.9189 4.80482C22.5716 2.49647 25.0507 1.58503 26.1803 2.2364ZM17.9999 13.245C19.7718 13.245 21.2083 14.6814 21.2083 16.4534C21.2083 18.2253 19.7718 19.6618 17.9999 19.6618C16.228 19.6618 14.7915 18.2253 14.7915 16.4534C14.7915 14.6814 16.228 13.245 17.9999 13.245Z" fill="#00D8FF"/>
</g>
<defs>
<clipPath id="clip0_252_2179">
<rect width="35.93" height="32" fill="white" transform="translate(0.0350037 0.5)"/>
</clipPath>
</defs>
</svg>
