<svg width="33" height="32" viewBox="0 0 33 32" fill="none" xmlns="http://www.w3.org/2000/svg">
<g id="material-symbols:mail">
<path id="Vector" d="M3.66669 24.0006V24V8C3.66669 7.40045 3.87451 6.89929 4.30424 6.46955C4.73396 6.03983 5.23449 5.8326 5.83275 5.83333H5.83336H27.1667C27.7662 5.83333 28.2674 6.04115 28.6971 6.47088C29.1269 6.9006 29.3341 7.40113 29.3334 7.99939V8V24C29.3334 24.5995 29.1255 25.1007 28.6958 25.5304C28.2661 25.9602 27.7656 26.1674 27.1673 26.1667H27.1667H5.83336C5.23381 26.1667 4.73265 25.9588 4.30291 25.5291C3.87319 25.0994 3.66596 24.5989 3.66669 24.0006ZM16.235 17.7573L16.5 17.923L16.765 17.7573L27.4317 11.0907L27.6667 10.9438V10.6667V8V7.09787L26.9017 7.576L16.5 14.077L6.09836 7.576L5.33336 7.09787V8V10.6667V10.9438L5.56836 11.0907L16.235 17.7573Z" fill="#FAFAFA" stroke="#FAFAFA"/>
</g>
</svg>
