<svg width="64" height="56" viewBox="0 0 64 56" fill="none" xmlns="http://www.w3.org/2000/svg">
<rect width="64" height="56" fill="#404040"/>
<path d="M18.043 35.72C18.731 35.72 19.315 35.596 19.795 35.348C20.283 35.1 20.651 34.748 20.899 34.292C21.147 33.836 21.271 33.292 21.271 32.66C21.271 32.028 21.127 31.504 20.839 31.088C20.559 30.672 20.175 30.36 19.687 30.152C19.199 29.944 18.651 29.84 18.043 29.84H15.103C14.895 29.84 14.751 29.884 14.671 29.972C14.599 30.06 14.563 30.212 14.563 30.428V35.156C14.563 35.38 14.599 35.532 14.671 35.612C14.743 35.684 14.887 35.72 15.103 35.72H18.043ZM15.199 27.56H17.683C18.227 27.56 18.723 27.468 19.171 27.284C19.627 27.092 19.991 26.8 20.263 26.408C20.535 26.008 20.671 25.492 20.671 24.86C20.671 24.228 20.543 23.724 20.287 23.348C20.031 22.972 19.679 22.7 19.231 22.532C18.783 22.364 18.267 22.28 17.683 22.28H15.079C14.887 22.28 14.751 22.312 14.671 22.376C14.599 22.432 14.563 22.556 14.563 22.748V26.96C14.563 27.224 14.599 27.392 14.671 27.464C14.751 27.528 14.927 27.56 15.199 27.56ZM18.403 38H8.47903C8.25503 38 8.11103 37.96 8.04703 37.88C7.98303 37.8 7.95103 37.644 7.95103 37.412V36.104C7.95103 35.928 7.98303 35.82 8.04703 35.78C8.11903 35.74 8.23103 35.72 8.38303 35.72H10.075C10.291 35.72 10.431 35.684 10.495 35.612C10.559 35.532 10.591 35.384 10.591 35.168V22.82C10.591 22.604 10.559 22.46 10.495 22.388C10.431 22.316 10.291 22.28 10.075 22.28H8.45503C8.24703 22.28 8.11103 22.256 8.04703 22.208C7.98303 22.152 7.95103 22.02 7.95103 21.812V20.504C7.95103 20.304 7.98303 20.172 8.04703 20.108C8.11903 20.036 8.24703 20 8.43103 20H17.803C19.331 20 20.611 20.156 21.643 20.468C22.675 20.772 23.451 21.26 23.971 21.932C24.499 22.604 24.763 23.48 24.763 24.56C24.763 25.576 24.507 26.4 23.995 27.032C23.483 27.656 22.735 28.116 21.751 28.412C21.551 28.468 21.451 28.544 21.451 28.64C21.459 28.728 21.567 28.796 21.775 28.844C22.991 29.124 23.931 29.6 24.595 30.272C25.267 30.944 25.603 31.84 25.603 32.96C25.603 34.2 25.335 35.188 24.799 35.924C24.271 36.66 23.475 37.192 22.411 37.52C21.347 37.84 20.011 38 18.403 38ZM37.1245 32.012L40.1485 24.512C40.2525 24.272 40.3285 24.076 40.3765 23.924C40.4245 23.772 40.4045 23.564 40.3165 23.3L40.0885 22.628C40.0405 22.484 39.9805 22.392 39.9085 22.352C39.8445 22.304 39.7165 22.28 39.5245 22.28H38.3005C38.0845 22.28 37.9525 22.244 37.9045 22.172C37.8645 22.1 37.8445 21.952 37.8445 21.728V20.684C37.8445 20.388 37.8765 20.2 37.9405 20.12C38.0045 20.04 38.1765 20 38.4565 20H45.3205C45.5205 20 45.6845 20.024 45.8125 20.072C45.9405 20.12 46.0045 20.252 46.0045 20.468V21.62C46.0045 21.884 45.9605 22.06 45.8725 22.148C45.7925 22.236 45.6205 22.28 45.3565 22.28H44.6965C44.3925 22.28 44.2045 22.316 44.1325 22.388C44.0685 22.46 44.0725 22.608 44.1445 22.832L46.6285 30.884C46.7005 31.1 46.7645 31.344 46.8205 31.616C46.8765 31.888 46.9325 32.124 46.9885 32.324C47.0525 32.516 47.1205 32.612 47.1925 32.612C47.2485 32.612 47.3045 32.568 47.3605 32.48C47.4245 32.392 47.4965 32.232 47.5765 32L50.6605 22.868C50.7405 22.628 50.7765 22.472 50.7685 22.4C50.7605 22.32 50.5805 22.28 50.2285 22.28H48.9685C48.7285 22.28 48.5725 22.248 48.5005 22.184C48.4365 22.112 48.4045 21.948 48.4045 21.692V20.648C48.4045 20.368 48.4365 20.192 48.5005 20.12C48.5645 20.04 48.7325 20 49.0045 20H55.1845C55.4325 20 55.6045 20.028 55.7005 20.084C55.7965 20.132 55.8445 20.284 55.8445 20.54V21.764C55.8445 21.996 55.8085 22.14 55.7365 22.196C55.6725 22.252 55.5205 22.28 55.2805 22.28H53.7445C53.4405 22.28 53.2525 22.324 53.1805 22.412C53.1085 22.492 53.0365 22.64 52.9645 22.856L47.8885 37.844C47.8165 38.028 47.7445 38.14 47.6725 38.18C47.6005 38.22 47.4365 38.24 47.1805 38.24H45.9565C45.6845 38.24 45.5165 38.2 45.4525 38.12C45.3965 38.048 45.3325 37.912 45.2605 37.712L42.3205 29.036C42.2325 28.788 42.1525 28.504 42.0805 28.184C42.0085 27.864 41.9285 27.584 41.8405 27.344C41.7605 27.096 41.6685 26.972 41.5645 26.972C41.4365 26.972 41.2965 27.16 41.1445 27.536L36.9325 37.712C36.8525 37.912 36.7805 38.048 36.7165 38.12C36.6605 38.2 36.4765 38.24 36.1645 38.24H35.0005C34.6965 38.24 34.5005 38.208 34.4125 38.144C34.3325 38.08 34.2525 37.94 34.1725 37.724L28.8805 22.844C28.7925 22.604 28.7045 22.452 28.6165 22.388C28.5285 22.316 28.3165 22.28 27.9805 22.28H26.6125C26.3885 22.28 26.2445 22.252 26.1805 22.196C26.1165 22.14 26.0845 22 26.0845 21.776V20.588C26.0845 20.316 26.1245 20.152 26.2045 20.096C26.2925 20.032 26.4645 20 26.7205 20H34.7005C34.9725 20 35.1645 20.036 35.2765 20.108C35.3885 20.172 35.4445 20.352 35.4445 20.648V21.716C35.4445 21.964 35.4085 22.12 35.3365 22.184C35.2645 22.248 35.1045 22.28 34.8565 22.28H33.7885C33.5085 22.28 33.3245 22.312 33.2365 22.376C33.1565 22.44 33.1525 22.58 33.2245 22.796L35.9485 30.848C36.0365 31.088 36.1085 31.352 36.1645 31.64C36.2285 31.92 36.2965 32.164 36.3685 32.372C36.4405 32.572 36.5245 32.672 36.6205 32.672C36.7165 32.672 36.8005 32.616 36.8725 32.504C36.9525 32.392 37.0365 32.228 37.1245 32.012Z" fill="#FAFAFA"/>
</svg>
