<svg width="231" height="15" viewBox="0 0 231 15" fill="none" xmlns="http://www.w3.org/2000/svg">
<path d="M8.019 12.578C8.535 12.578 8.988 12.479 9.378 12.281C9.774 12.083 10.083 11.798 10.305 11.426C10.527 11.054 10.638 10.607 10.638 10.085C10.638 9.563 10.518 9.128 10.278 8.78C10.044 8.432 9.729 8.171 9.333 7.997C8.937 7.823 8.499 7.736 8.019 7.736H5.472C5.304 7.736 5.19 7.769 5.13 7.835C5.076 7.895 5.049 8.015 5.049 8.195V12.191C5.049 12.347 5.076 12.452 5.13 12.506C5.19 12.554 5.301 12.578 5.463 12.578H8.019ZM5.517 6.314H7.785C8.217 6.314 8.616 6.239 8.982 6.089C9.354 5.933 9.654 5.693 9.882 5.369C10.11 5.039 10.224 4.613 10.224 4.091C10.224 3.569 10.113 3.149 9.891 2.831C9.669 2.513 9.375 2.282 9.009 2.138C8.643 1.994 8.235 1.922 7.785 1.922H5.409C5.271 1.922 5.175 1.949 5.121 2.003C5.073 2.051 5.049 2.147 5.049 2.291V5.9C5.049 6.092 5.079 6.209 5.139 6.251C5.199 6.293 5.325 6.314 5.517 6.314ZM8.253 14H0.99C0.834 14 0.732 13.976 0.684 13.928C0.636 13.88 0.612 13.778 0.612 13.622V12.875C0.612 12.743 0.636 12.662 0.684 12.632C0.732 12.596 0.816 12.578 0.936 12.578H2.205C2.355 12.578 2.457 12.557 2.511 12.515C2.565 12.467 2.592 12.368 2.592 12.218V2.3C2.592 2.138 2.565 2.036 2.511 1.994C2.463 1.946 2.358 1.922 2.196 1.922H0.981C0.825 1.922 0.723 1.904 0.675 1.868C0.633 1.832 0.612 1.736 0.612 1.58V0.842C0.612 0.704 0.633 0.614 0.675 0.571999C0.723 0.523999 0.813 0.499999 0.945 0.499999H7.839C8.889 0.499999 9.783 0.622999 10.521 0.868999C11.259 1.109 11.817 1.484 12.195 1.994C12.579 2.504 12.771 3.158 12.771 3.956C12.771 4.724 12.588 5.345 12.222 5.819C11.856 6.287 11.316 6.623 10.602 6.827C10.458 6.869 10.389 6.92 10.395 6.98C10.401 7.04 10.47 7.088 10.602 7.124C11.478 7.334 12.156 7.691 12.636 8.195C13.122 8.699 13.365 9.374 13.365 10.22C13.365 11.138 13.17 11.873 12.78 12.425C12.396 12.977 11.823 13.379 11.061 13.631C10.299 13.877 9.363 14 8.253 14ZM28.2022 6.521H30.6952C31.1152 6.521 31.5052 6.437 31.8652 6.269C32.2312 6.095 32.5252 5.84 32.7472 5.504C32.9692 5.162 33.0802 4.739 33.0802 4.235C33.0802 3.731 32.9692 3.308 32.7472 2.966C32.5252 2.618 32.2312 2.357 31.8652 2.183C31.5052 2.009 31.1152 1.922 30.6952 1.922H28.1392C27.9652 1.922 27.8482 1.943 27.7882 1.985C27.7342 2.027 27.7072 2.138 27.7072 2.318V6.098C27.7072 6.302 27.7402 6.425 27.8062 6.467C27.8782 6.503 28.0102 6.521 28.2022 6.521ZM36.4462 14H35.0782C34.4662 14 33.9922 13.892 33.6562 13.676C33.3262 13.454 33.0862 13.166 32.9362 12.812C32.7862 12.452 32.6842 12.059 32.6302 11.633C32.5762 11.201 32.5252 10.772 32.4772 10.346C32.4292 9.92 32.3362 9.53 32.1982 9.176C32.0602 8.816 31.8352 8.528 31.5232 8.312C31.2112 8.09 30.7612 7.979 30.1732 7.979H28.1752C27.9832 7.979 27.8572 7.997 27.7972 8.033C27.7372 8.069 27.7072 8.183 27.7072 8.375V12.164C27.7072 12.32 27.7312 12.428 27.7792 12.488C27.8272 12.548 27.9322 12.578 28.0942 12.578H29.3542C29.5042 12.578 29.5972 12.602 29.6332 12.65C29.6692 12.692 29.6872 12.791 29.6872 12.947V13.577C29.6872 13.769 29.6512 13.889 29.5792 13.937C29.5072 13.979 29.3812 14 29.2012 14H23.6482C23.4742 14 23.3662 13.976 23.3242 13.928C23.2882 13.874 23.2702 13.76 23.2702 13.586V13.01C23.2702 12.812 23.2942 12.692 23.3422 12.65C23.3962 12.602 23.5192 12.578 23.7112 12.578H24.7822C24.9742 12.578 25.1002 12.554 25.1602 12.506C25.2202 12.458 25.2502 12.341 25.2502 12.155V2.318C25.2502 2.174 25.2322 2.072 25.1962 2.012C25.1602 1.952 25.0672 1.922 24.9172 1.922H23.6122C23.4922 1.922 23.4052 1.898 23.3512 1.85C23.2972 1.802 23.2702 1.718 23.2702 1.598V0.86C23.2702 0.715999 23.2912 0.619999 23.3332 0.571999C23.3812 0.523999 23.4712 0.499999 23.6032 0.499999H30.6952C31.8532 0.499999 32.7952 0.652999 33.5212 0.958999C34.2472 1.265 34.7782 1.691 35.1142 2.237C35.4562 2.783 35.6272 3.413 35.6272 4.127C35.6272 4.859 35.4532 5.48 35.1052 5.99C34.7632 6.5 34.1812 6.881 33.3592 7.133C33.1852 7.187 33.0892 7.256 33.0712 7.34C33.0592 7.418 33.1342 7.493 33.2962 7.565C33.7702 7.775 34.1242 8.045 34.3582 8.375C34.5982 8.705 34.7632 9.059 34.8532 9.437C34.9432 9.809 34.9972 10.181 35.0152 10.553C35.0332 10.925 35.0542 11.264 35.0782 11.57C35.1082 11.87 35.1772 12.113 35.2852 12.299C35.3992 12.485 35.5942 12.578 35.8702 12.578H36.4372C36.5812 12.578 36.6772 12.593 36.7252 12.623C36.7792 12.647 36.8062 12.737 36.8062 12.893V13.658C36.8062 13.808 36.7822 13.904 36.7342 13.946C36.6862 13.982 36.5902 14 36.4462 14ZM53.6632 3.299L51.5032 8.375C51.4552 8.489 51.4372 8.576 51.4492 8.636C51.4672 8.696 51.5692 8.726 51.7552 8.726H55.5172C55.7692 8.726 55.8982 8.693 55.9042 8.627C55.9162 8.561 55.8922 8.444 55.8322 8.276L53.9872 3.326C53.9152 3.134 53.8582 3.044 53.8162 3.056C53.7802 3.068 53.7292 3.149 53.6632 3.299ZM46.2832 13.586V12.875C46.2832 12.767 46.3042 12.692 46.3462 12.65C46.3882 12.602 46.4662 12.578 46.5802 12.578H47.8222C48.0022 12.578 48.1162 12.548 48.1642 12.488C48.2122 12.428 48.2632 12.341 48.3172 12.227L53.4202 0.382999C53.4502 0.310999 53.4802 0.268999 53.5102 0.256999C53.5462 0.238999 53.6182 0.229999 53.7262 0.229999H55.0402C55.1482 0.229999 55.2232 0.241999 55.2652 0.266C55.3072 0.289999 55.3462 0.340999 55.3822 0.418999L60.0442 12.137C60.1042 12.287 60.1522 12.398 60.1882 12.47C60.2302 12.542 60.3592 12.578 60.5752 12.578H61.9252C62.0572 12.578 62.1442 12.596 62.1862 12.632C62.2282 12.662 62.2492 12.743 62.2492 12.875V13.658C62.2492 13.808 62.2312 13.904 62.1952 13.946C62.1652 13.982 62.0752 14 61.9252 14H55.7962C55.6642 14 55.5712 13.982 55.5172 13.946C55.4692 13.904 55.4452 13.811 55.4452 13.667V12.893C55.4452 12.755 55.4692 12.668 55.5172 12.632C55.5652 12.596 55.6552 12.578 55.7872 12.578H57.0562C57.2362 12.578 57.3292 12.548 57.3352 12.488C57.3472 12.422 57.3322 12.332 57.2902 12.218L56.6602 10.526C56.5942 10.346 56.5372 10.229 56.4892 10.175C56.4412 10.121 56.2912 10.094 56.0392 10.094H51.2422C51.0502 10.094 50.9182 10.115 50.8462 10.157C50.7742 10.193 50.7112 10.277 50.6572 10.409L49.9192 12.164C49.8592 12.308 49.8412 12.413 49.8652 12.479C49.8892 12.545 49.9942 12.578 50.1802 12.578H51.4132C51.5272 12.578 51.6022 12.599 51.6382 12.641C51.6802 12.677 51.7012 12.755 51.7012 12.875V13.703C51.7012 13.847 51.6832 13.934 51.6472 13.964C51.6172 13.988 51.5302 14 51.3862 14H46.7782C46.5862 14 46.4542 13.982 46.3822 13.946C46.3162 13.904 46.2832 13.784 46.2832 13.586ZM73.2871 1.922H72.2161C72.0781 1.922 71.9881 1.901 71.9461 1.859C71.9041 1.817 71.8831 1.73 71.8831 1.598V0.958999C71.8831 0.766999 71.9041 0.643999 71.9461 0.589999C71.9881 0.529999 72.1021 0.499999 72.2881 0.499999H75.4741C75.8161 0.499999 76.0411 0.532999 76.1491 0.598999C76.2631 0.658999 76.3921 0.778999 76.5361 0.958999L83.2141 9.329C83.3461 9.479 83.4511 9.536 83.5291 9.5C83.6131 9.464 83.6551 9.26 83.6551 8.888V2.327C83.6551 2.147 83.6281 2.036 83.5741 1.994C83.5261 1.946 83.4151 1.922 83.2411 1.922H82.2331C82.0831 1.922 81.9511 1.907 81.8371 1.877C81.7291 1.841 81.6751 1.742 81.6751 1.58V0.995C81.6751 0.802999 81.7021 0.673999 81.7561 0.608C81.8161 0.535999 81.9421 0.499999 82.1341 0.499999H86.6791C86.7931 0.499999 86.8891 0.514999 86.9671 0.544999C87.0511 0.568999 87.0931 0.646999 87.0931 0.778999V1.472C87.0931 1.658 87.0721 1.781 87.0301 1.841C86.9881 1.895 86.8711 1.922 86.6791 1.922H85.6261C85.4461 1.922 85.3291 1.952 85.2751 2.012C85.2271 2.066 85.2031 2.186 85.2031 2.372V13.811C85.2031 13.937 85.1851 14.033 85.1491 14.099C85.1191 14.171 85.0351 14.207 84.8971 14.207H84.4741C84.3001 14.207 84.1711 14.183 84.0871 14.135C84.0091 14.087 83.9311 14.015 83.8531 13.919L75.7801 3.794C75.6421 3.62 75.5311 3.557 75.4471 3.605C75.3631 3.647 75.3211 3.887 75.3211 4.325V12.155C75.3211 12.341 75.3451 12.458 75.3931 12.506C75.4411 12.554 75.5551 12.578 75.7351 12.578H77.0851C77.2171 12.578 77.3011 12.605 77.3371 12.659C77.3731 12.713 77.3911 12.806 77.3911 12.938V13.622C77.3911 13.796 77.3551 13.904 77.2831 13.946C77.2171 13.982 77.1001 14 76.9321 14H72.3331C72.1411 14 72.0181 13.979 71.9641 13.937C71.9101 13.895 71.8831 13.781 71.8831 13.595V12.947C71.8831 12.773 71.9161 12.668 71.9821 12.632C72.0541 12.596 72.1741 12.578 72.3421 12.578H73.2871C73.4971 12.578 73.6291 12.551 73.6831 12.497C73.7431 12.443 73.7731 12.314 73.7731 12.11V2.372C73.7731 2.156 73.7431 2.027 73.6831 1.985C73.6291 1.943 73.4971 1.922 73.2871 1.922ZM97.0456 13.694V12.929C97.0456 12.779 97.0636 12.683 97.0996 12.641C97.1416 12.599 97.2316 12.578 97.3696 12.578H98.7286C98.8726 12.578 98.9566 12.554 98.9806 12.506C99.0106 12.452 99.0256 12.35 99.0256 12.2V2.336C99.0256 2.168 99.0076 2.057 98.9716 2.003C98.9356 1.949 98.8366 1.922 98.6746 1.922H97.5316C97.3456 1.922 97.2166 1.904 97.1446 1.868C97.0786 1.832 97.0456 1.73 97.0456 1.562V0.823999C97.0456 0.685999 97.0876 0.598999 97.1716 0.563C97.2556 0.520999 97.3756 0.499999 97.5316 0.499999H104.021C105.173 0.499999 106.178 0.670999 107.036 1.013C107.9 1.349 108.614 1.823 109.178 2.435C109.748 3.047 110.174 3.764 110.456 4.586C110.738 5.402 110.879 6.29 110.879 7.25C110.879 8.21 110.729 9.101 110.429 9.923C110.135 10.739 109.697 11.453 109.115 12.065C108.533 12.677 107.816 13.154 106.964 13.496C106.112 13.832 105.131 14 104.021 14H97.3876C97.2556 14 97.1656 13.982 97.1176 13.946C97.0696 13.91 97.0456 13.826 97.0456 13.694ZM101.906 12.578H103.967C104.945 12.578 105.731 12.356 106.325 11.912C106.925 11.462 107.36 10.838 107.63 10.04C107.9 9.236 108.035 8.306 108.035 7.25C108.035 6.194 107.888 5.267 107.594 4.469C107.3 3.665 106.85 3.041 106.244 2.597C105.644 2.147 104.885 1.922 103.967 1.922H101.915C101.735 1.922 101.618 1.946 101.564 1.994C101.51 2.042 101.483 2.162 101.483 2.354V12.236C101.483 12.398 101.51 12.497 101.564 12.533C101.624 12.563 101.738 12.578 101.906 12.578ZM121.82 7.25C121.82 6.266 121.976 5.351 122.288 4.505C122.6 3.659 123.047 2.918 123.629 2.282C124.217 1.646 124.931 1.151 125.771 0.796999C126.617 0.442999 127.568 0.266 128.624 0.266C129.68 0.266 130.628 0.442999 131.468 0.796999C132.308 1.151 133.022 1.646 133.61 2.282C134.198 2.918 134.648 3.659 134.96 4.505C135.272 5.351 135.428 6.266 135.428 7.25C135.428 8.234 135.263 9.149 134.933 9.995C134.609 10.841 134.144 11.582 133.538 12.218C132.938 12.854 132.221 13.349 131.387 13.703C130.559 14.057 129.638 14.234 128.624 14.234C127.568 14.234 126.617 14.057 125.771 13.703C124.931 13.349 124.217 12.854 123.629 12.218C123.047 11.582 122.6 10.841 122.288 9.995C121.976 9.149 121.82 8.234 121.82 7.25ZM124.673 7.25C124.673 8.042 124.748 8.78 124.898 9.464C125.048 10.148 125.279 10.748 125.591 11.264C125.909 11.78 126.317 12.182 126.815 12.47C127.319 12.758 127.922 12.902 128.624 12.902C129.368 12.902 129.992 12.758 130.496 12.47C131.006 12.182 131.414 11.78 131.72 11.264C132.026 10.748 132.245 10.148 132.377 9.464C132.509 8.78 132.575 8.042 132.575 7.25C132.575 6.452 132.5 5.714 132.35 5.036C132.2 4.352 131.966 3.752 131.648 3.236C131.336 2.72 130.928 2.318 130.424 2.03C129.926 1.742 129.326 1.598 128.624 1.598C127.922 1.598 127.319 1.742 126.815 2.03C126.317 2.318 125.909 2.72 125.591 3.236C125.279 3.752 125.048 4.352 124.898 5.036C124.748 5.714 124.673 6.452 124.673 7.25ZM146.992 1.922H145.921C145.783 1.922 145.693 1.901 145.651 1.859C145.609 1.817 145.588 1.73 145.588 1.598V0.958999C145.588 0.766999 145.609 0.643999 145.651 0.589999C145.693 0.529999 145.807 0.499999 145.993 0.499999H149.179C149.521 0.499999 149.746 0.532999 149.854 0.598999C149.968 0.658999 150.097 0.778999 150.241 0.958999L156.919 9.329C157.051 9.479 157.156 9.536 157.234 9.5C157.318 9.464 157.36 9.26 157.36 8.888V2.327C157.36 2.147 157.333 2.036 157.279 1.994C157.231 1.946 157.12 1.922 156.946 1.922H155.938C155.788 1.922 155.656 1.907 155.542 1.877C155.434 1.841 155.38 1.742 155.38 1.58V0.995C155.38 0.802999 155.407 0.673999 155.461 0.608C155.521 0.535999 155.647 0.499999 155.839 0.499999H160.384C160.498 0.499999 160.594 0.514999 160.672 0.544999C160.756 0.568999 160.798 0.646999 160.798 0.778999V1.472C160.798 1.658 160.777 1.781 160.735 1.841C160.693 1.895 160.576 1.922 160.384 1.922H159.331C159.151 1.922 159.034 1.952 158.98 2.012C158.932 2.066 158.908 2.186 158.908 2.372V13.811C158.908 13.937 158.89 14.033 158.854 14.099C158.824 14.171 158.74 14.207 158.602 14.207H158.179C158.005 14.207 157.876 14.183 157.792 14.135C157.714 14.087 157.636 14.015 157.558 13.919L149.485 3.794C149.347 3.62 149.236 3.557 149.152 3.605C149.068 3.647 149.026 3.887 149.026 4.325V12.155C149.026 12.341 149.05 12.458 149.098 12.506C149.146 12.554 149.26 12.578 149.44 12.578H150.79C150.922 12.578 151.006 12.605 151.042 12.659C151.078 12.713 151.096 12.806 151.096 12.938V13.622C151.096 13.796 151.06 13.904 150.988 13.946C150.922 13.982 150.805 14 150.637 14H146.038C145.846 14 145.723 13.979 145.669 13.937C145.615 13.895 145.588 13.781 145.588 13.595V12.947C145.588 12.773 145.621 12.668 145.687 12.632C145.759 12.596 145.879 12.578 146.047 12.578H146.992C147.202 12.578 147.334 12.551 147.388 12.497C147.448 12.443 147.478 12.314 147.478 12.11V2.372C147.478 2.156 147.448 2.027 147.388 1.985C147.334 1.943 147.202 1.922 146.992 1.922ZM192.482 10.148L194.948 3.767C195.014 3.581 195.065 3.428 195.101 3.308C195.137 3.188 195.122 3.029 195.056 2.831L194.849 2.219C194.813 2.099 194.765 2.021 194.705 1.985C194.651 1.943 194.546 1.922 194.39 1.922H193.526C193.364 1.922 193.265 1.895 193.229 1.841C193.199 1.787 193.184 1.679 193.184 1.517V0.977C193.184 0.766999 193.208 0.634999 193.256 0.580999C193.304 0.526999 193.427 0.499999 193.625 0.499999H198.431C198.575 0.499999 198.683 0.520999 198.755 0.563C198.833 0.598999 198.872 0.694999 198.872 0.850999V1.463C198.872 1.661 198.833 1.787 198.755 1.841C198.683 1.895 198.551 1.922 198.359 1.922H197.855C197.621 1.922 197.471 1.949 197.405 2.003C197.345 2.051 197.345 2.165 197.405 2.345L199.529 9.338C199.577 9.494 199.619 9.668 199.655 9.86C199.691 10.052 199.73 10.217 199.772 10.355C199.814 10.487 199.859 10.553 199.907 10.553C199.949 10.553 199.991 10.523 200.033 10.463C200.081 10.403 200.135 10.28 200.195 10.094L202.805 2.3C202.865 2.138 202.889 2.036 202.877 1.994C202.871 1.946 202.751 1.922 202.517 1.922H201.419C201.251 1.922 201.143 1.898 201.095 1.85C201.053 1.796 201.032 1.679 201.032 1.499V0.967999C201.032 0.769999 201.053 0.643999 201.095 0.589999C201.137 0.529999 201.257 0.499999 201.455 0.499999H205.919C206.105 0.499999 206.231 0.517999 206.297 0.553999C206.363 0.59 206.396 0.701 206.396 0.887V1.535C206.396 1.709 206.369 1.817 206.315 1.859C206.267 1.901 206.156 1.922 205.982 1.922H204.794C204.578 1.922 204.446 1.949 204.398 2.003C204.356 2.057 204.308 2.162 204.254 2.318L200.357 13.901C200.315 14.033 200.27 14.111 200.222 14.135C200.174 14.165 200.063 14.18 199.889 14.18H199.187C198.995 14.18 198.875 14.153 198.827 14.099C198.785 14.051 198.74 13.955 198.692 13.811L196.406 6.845C196.346 6.659 196.289 6.449 196.235 6.215C196.187 5.981 196.136 5.78 196.082 5.612C196.028 5.438 195.962 5.351 195.884 5.351C195.788 5.351 195.68 5.504 195.56 5.81L192.428 13.802C192.374 13.946 192.326 14.045 192.284 14.099C192.242 14.153 192.11 14.18 191.888 14.18H191.213C191.015 14.18 190.886 14.153 190.826 14.099C190.766 14.045 190.709 13.946 190.655 13.802L186.596 2.318C186.536 2.15 186.47 2.042 186.398 1.994C186.326 1.946 186.176 1.922 185.948 1.922H184.895C184.733 1.922 184.628 1.901 184.58 1.859C184.532 1.817 184.508 1.718 184.508 1.562V0.932C184.508 0.734 184.535 0.614 184.589 0.571999C184.643 0.523999 184.763 0.499999 184.949 0.499999H190.565C190.751 0.499999 190.886 0.529999 190.97 0.589999C191.054 0.643999 191.096 0.769999 191.096 0.967999V1.535C191.096 1.709 191.066 1.817 191.006 1.859C190.946 1.901 190.835 1.922 190.673 1.922H189.71C189.476 1.922 189.332 1.949 189.278 2.003C189.23 2.057 189.233 2.171 189.287 2.345L191.618 9.239C191.684 9.425 191.741 9.629 191.789 9.851C191.837 10.067 191.888 10.253 191.942 10.409C191.996 10.565 192.059 10.643 192.131 10.643C192.191 10.643 192.248 10.604 192.302 10.526C192.356 10.442 192.416 10.316 192.482 10.148ZM226.716 1.922H225.222C225.078 1.922 224.982 1.898 224.934 1.85C224.892 1.802 224.871 1.706 224.871 1.562V0.940999C224.871 0.760999 224.895 0.643999 224.943 0.589999C224.991 0.529999 225.102 0.499999 225.276 0.499999H230.208C230.376 0.499999 230.484 0.520999 230.532 0.563C230.586 0.605 230.613 0.713 230.613 0.887V1.544C230.613 1.712 230.586 1.817 230.532 1.859C230.478 1.901 230.367 1.922 230.199 1.922H229.083C228.897 1.922 228.774 1.943 228.714 1.985C228.66 2.027 228.633 2.144 228.633 2.336V8.6C228.633 10.532 228.189 11.966 227.301 12.902C226.413 13.832 225.051 14.297 223.215 14.297C222.147 14.297 221.259 14.153 220.551 13.865C219.843 13.577 219.282 13.175 218.868 12.659C218.46 12.143 218.169 11.534 217.995 10.832C217.821 10.13 217.734 9.368 217.734 8.546V2.318C217.734 2.132 217.698 2.021 217.626 1.985C217.554 1.943 217.434 1.922 217.266 1.922H216.123C215.955 1.922 215.85 1.898 215.808 1.85C215.772 1.796 215.754 1.685 215.754 1.517V0.887C215.754 0.719 215.781 0.614 215.835 0.571999C215.895 0.523999 216.003 0.499999 216.159 0.499999H221.955C222.105 0.499999 222.207 0.520999 222.261 0.563C222.321 0.598999 222.351 0.697999 222.351 0.86V1.508C222.351 1.688 222.324 1.802 222.27 1.85C222.216 1.898 222.099 1.922 221.919 1.922H220.659C220.455 1.922 220.326 1.949 220.272 2.003C220.218 2.051 220.191 2.177 220.191 2.381V8.312C220.191 9.206 220.293 9.986 220.497 10.652C220.701 11.318 221.052 11.834 221.55 12.2C222.054 12.566 222.753 12.749 223.647 12.749C224.445 12.749 225.099 12.614 225.609 12.344C226.125 12.068 226.506 11.627 226.752 11.021C226.998 10.409 227.121 9.602 227.121 8.6V2.345C227.121 2.159 227.097 2.042 227.049 1.994C227.007 1.946 226.896 1.922 226.716 1.922Z" fill="#FAFAFA"/>
</svg>
