<svg width="33" height="33" viewBox="0 0 33 33" fill="none" xmlns="http://www.w3.org/2000/svg">
<g id="simple-icons:mongodb" clip-path="url(#clip0_252_2183)">
<path id="Vector" d="M23.389 13.24C21.7037 5.8 17.7197 3.35467 17.2917 2.42C16.9183 1.89467 16.585 1.148 16.3117 0.5C16.2637 1.16 16.2383 1.41333 15.6143 2.07867C14.6503 2.83333 9.69701 6.988 9.29434 15.4387C8.91834 23.3213 14.9877 28.0187 15.8117 28.6173L15.905 28.684C16.0766 29.953 16.2233 31.2252 16.345 32.5H16.9863C17.1382 31.1242 17.3652 29.7577 17.6663 28.4067C18.2223 28.012 18.4717 27.7893 18.7997 27.4827C20.353 26.0457 21.5874 24.2988 22.4232 22.3548C23.2589 20.4109 23.6775 18.3132 23.6517 16.1973C23.665 15.112 23.5143 13.9813 23.389 13.24ZM16.2743 24.1667C16.2743 24.1667 16.2743 13.112 16.641 13.1133C16.925 13.1133 17.2943 27.3733 17.2943 27.3733C16.7863 27.3133 16.2743 25.0267 16.2743 24.1667Z" fill="black"/>
</g>
<defs>
<clipPath id="clip0_252_2183">
<rect width="32" height="32" fill="white" transform="translate(0.465027 0.5)"/>
</clipPath>
</defs>
</svg>
