<svg width="28" height="33" viewBox="0 0 28 33" fill="none" xmlns="http://www.w3.org/2000/svg">
<g id="logos:prisma" clip-path="url(#clip0_252_2187)">
<path id="Vector" d="M27.0037 24.8116L16.0294 1.5063C15.8931 1.21955 15.6817 0.974989 15.4177 0.79851C15.1538 0.62203 14.847 0.520193 14.5299 0.503776C14.2122 0.482485 13.8947 0.548713 13.612 0.695258C13.3293 0.841802 13.0922 1.06305 12.9265 1.33495L1.02382 20.6133C0.842834 20.9044 0.748581 21.241 0.75211 21.5838C0.755638 21.9265 0.856803 22.2612 1.04374 22.5485L6.86299 31.5602C7.08315 31.8985 7.40677 32.1565 7.78558 32.2959C8.1644 32.4352 8.5781 32.4483 8.96498 32.3332L25.8526 27.3379C26.1069 27.2636 26.3423 27.1355 26.5428 26.9624C26.7433 26.7893 26.9043 26.5751 27.0149 26.3344C27.124 26.0949 27.1796 25.8346 27.1778 25.5714C27.176 25.3083 27.1169 25.0487 27.0045 24.8108L27.0037 24.8116ZM24.5467 25.8111L10.2166 30.0486C9.77943 30.1786 9.35982 29.7997 9.45076 29.3585L14.5706 4.84401C14.6662 4.38538 15.2996 4.3127 15.4999 4.73717L24.9775 24.8634C25.0194 24.9531 25.0413 25.0508 25.0418 25.1498C25.0423 25.2487 25.0213 25.3467 24.9803 25.4367C24.9393 25.5268 24.8792 25.6069 24.8042 25.6716C24.7292 25.7362 24.6411 25.7838 24.546 25.811L24.5467 25.8111Z" fill="black"/>
</g>
<defs>
<clipPath id="clip0_252_2187">
<rect width="26.43" height="32" fill="white" transform="translate(0.749939 0.5)"/>
</clipPath>
</defs>
</svg>
