<svg width="48" height="49" viewBox="0 0 48 49" fill="none" xmlns="http://www.w3.org/2000/svg">
<g id="mdi:tailwind">
<path id="Vector" d="M24 12.5C18.66 12.5 15.34 15.16 14 20.5C16 17.84 18.34 16.84 21 17.5C22.52 17.88 23.62 18.98 24.82 20.2C26.78 22.2 29 24.5 34 24.5C39.34 24.5 42.66 21.84 44 16.5C42 19.16 39.66 20.16 37 19.5C35.48 19.12 34.4 18.02 33.18 16.8C31.22 14.8 29 12.5 24 12.5ZM14 24.5C8.66 24.5 5.34 27.16 4 32.5C6 29.84 8.34 28.84 11 29.5C12.52 29.88 13.6 30.98 14.82 32.2C16.78 34.2 19 36.5 24 36.5C29.34 36.5 32.66 33.84 34 28.5C32 31.16 29.66 32.16 27 31.5C25.48 31.12 24.4 30.02 23.18 28.8C21.22 26.8 19 24.5 14 24.5Z" fill="#FAFAFA"/>
</g>
</svg>
