<svg width="48" height="49" viewBox="0 0 48 49" fill="none" xmlns="http://www.w3.org/2000/svg">
<g id="devicon:tailwindcss" clip-path="url(#clip0_252_1911)">
<path id="Vector" d="M24.0015 10.1007C17.6014 10.1007 13.6028 13.2995 12.0015 19.6996C14.4008 16.5005 17.2017 15.3008 20.4008 16.1007C22.2274 16.556 23.5328 17.8805 24.9784 19.3482C27.3312 21.7358 30.0544 24.5 36.0015 24.5C42.4013 24.5 46.4003 21.3008 48.0015 14.8992C45.6019 18.1002 42.8014 19.2998 39.6019 18.5C37.7757 18.0443 36.4718 16.7202 35.0243 15.2525C32.673 12.8648 29.9505 10.1007 24.0015 10.1007ZM12.0015 24.5C5.60178 24.5 1.60278 27.6991 0.00152588 34.1007C2.40078 30.8997 5.20128 29.7001 8.40078 30.5C10.2274 30.9556 11.5328 32.2797 12.9784 33.7475C15.3312 36.1351 18.0544 38.8992 24.0015 38.8992C30.4013 38.8992 34.4003 35.7005 36.0015 29.3003C33.6019 32.4995 30.8014 33.6991 27.6019 32.8992C25.7757 32.444 24.4718 31.1195 23.0243 29.6517C20.673 27.2641 17.9505 24.5 12.0015 24.5Z" fill="#38BDF8"/>
</g>
<defs>
<clipPath id="clip0_252_1911">
<rect width="48" height="48" fill="white" transform="translate(0 0.5)"/>
</clipPath>
</defs>
</svg>
