<svg width="48" height="49" viewBox="0 0 48 49" fill="none" xmlns="http://www.w3.org/2000/svg">
<g id="teenyicons:nextjs-solid" clip-path="url(#clip0_252_1900)">
<path id="Vector" fill-rule="evenodd" clip-rule="evenodd" d="M6.90776e-07 24.5C0.000154597 20.3586 1.07193 16.2878 3.11112 12.6833C5.15031 9.0788 8.08752 6.0633 11.6371 3.93001C15.1868 1.79673 19.228 0.618256 23.3679 0.509182C27.5078 0.400108 31.6055 1.36415 35.2625 3.30756C38.9195 5.25097 42.0115 8.10762 44.2376 11.5997C46.4638 15.0919 47.7484 19.1006 47.9667 23.2362C48.1849 27.3718 47.3293 31.4935 45.483 35.2005C43.6367 38.9075 40.8626 42.0737 37.4304 44.3912L15.7024 13.972C15.5055 13.6961 15.2261 13.4898 14.9045 13.383C14.5828 13.2761 14.2356 13.2741 13.9127 13.3774C13.5899 13.4806 13.3082 13.6836 13.1082 13.9573C12.9082 14.2309 12.8003 14.561 12.8 14.9V38.9H16V19.892L34.656 46.0104C30.9965 47.8237 26.9348 48.6732 22.8553 48.4784C18.7758 48.2836 14.8135 47.051 11.3434 44.8971C7.87332 42.7433 5.01029 39.7396 3.0253 36.1703C1.04031 32.601 -0.000979079 28.5841 6.90776e-07 24.5ZM32 32.5V13.3H35.2V32.5H32Z" fill="#FAFAFA"/>
</g>
<defs>
<clipPath id="clip0_252_1900">
<rect width="48" height="48" fill="white" transform="translate(0 0.5)"/>
</clipPath>
</defs>
</svg>
