<svg width="48" height="49" viewBox="0 0 48 49" fill="none" xmlns="http://www.w3.org/2000/svg">
<g id="devicon:typescript">
<path id="Vector" d="M8.50122 18.125H45.8775V45.7512H8.50122V18.125Z" fill="white"/>
<path id="Vector_2" d="M0.5625 24.4663V47.9038H47.4375V1.02881H0.5625V24.4663ZM38.3363 22.5913C39.459 22.8518 40.4794 23.439 41.2688 24.2788C41.7033 24.7312 42.0811 25.2349 42.3938 25.7788C42.3937 25.8388 40.3688 27.2076 39.135 27.9726C39.09 28.0026 38.91 27.8076 38.7113 27.5113C38.486 27.1227 38.166 26.7975 37.7811 26.566C37.3962 26.3345 36.9589 26.2043 36.51 26.1876C35.0887 26.0901 34.1738 26.8363 34.1813 28.0626C34.1695 28.3679 34.2394 28.6708 34.3838 28.9401C34.695 29.5888 35.2762 29.9751 37.0988 30.7626C40.455 32.2063 41.8912 33.1588 42.7837 34.5126C43.7812 36.0126 44.0025 38.4351 43.3275 40.2276C42.5775 42.1776 40.74 43.5013 38.1413 43.9401C36.9543 44.076 35.7551 44.0634 34.5713 43.9026C32.7569 43.6035 31.0856 42.7324 29.8013 41.4163C29.37 40.9401 28.53 39.6988 28.5825 39.6088C28.7194 39.5072 28.8635 39.4157 29.0138 39.3351L30.75 38.3751L32.0962 37.5951L32.3775 38.0113C32.8521 38.6903 33.4562 39.2688 34.155 39.7138C35.655 40.5013 37.7025 40.3926 38.715 39.4813C39.0549 39.1474 39.267 38.7048 39.3143 38.2307C39.3616 37.7565 39.2411 37.2808 38.9738 36.8863C38.5988 36.3651 37.8487 35.9263 35.7525 35.0113C33.3337 33.9688 32.2913 33.3238 31.3387 32.2963C30.7441 31.6183 30.3051 30.8183 30.0525 29.9526C29.8641 28.9635 29.8362 27.9505 29.97 26.9526C30.4688 24.6163 32.22 22.9851 34.7775 22.5013C35.9619 22.3548 37.1616 22.3876 38.3363 22.5988V22.5913ZM27.3337 24.5563V26.4763H21.2475V43.8126H16.9313V26.4726H10.83V24.5976C10.811 23.951 10.826 23.3038 10.875 22.6588C10.905 22.6251 14.625 22.6251 19.125 22.6251H27.3113L27.3337 24.5563Z" fill="#007ACC"/>
</g>
</svg>
