<svg width="48" height="49" viewBox="0 0 48 49" fill="none" xmlns="http://www.w3.org/2000/svg">
<g id="simple-icons:typescript" clip-path="url(#clip0_478_787)">
<path id="Vector" d="M2.25 0.5C1.004 0.5 0 1.504 0 2.75V46.25C0 47.496 1.004 48.5 2.25 48.5H45.75C46.996 48.5 48 47.496 48 46.25V2.75C48 1.504 46.996 0.5 45.75 0.5H2.25ZM36.976 20C38.2 20 39.284 20.074 40.23 20.222C41.1223 20.3557 41.9978 20.5836 42.842 20.902V25.818C42.4368 25.5378 42.0062 25.296 41.556 25.096C41.0917 24.8871 40.6123 24.7132 40.122 24.576C39.1932 24.3172 38.2342 24.1827 37.27 24.176C36.67 24.176 36.124 24.232 35.632 24.348C35.1935 24.4418 34.7728 24.6052 34.386 24.832C34.046 25.04 33.786 25.29 33.6 25.58C33.4129 25.8723 33.3156 26.213 33.32 26.56C33.32 26.952 33.426 27.306 33.632 27.618C33.84 27.93 34.136 28.226 34.518 28.506C34.9 28.786 35.364 29.058 35.91 29.326C36.456 29.596 37.074 29.874 37.762 30.158C38.702 30.552 39.546 30.972 40.294 31.414C41.042 31.858 41.684 32.36 42.22 32.92C42.756 33.478 43.164 34.116 43.448 34.834C43.732 35.552 43.876 36.386 43.876 37.34C43.876 38.654 43.626 39.76 43.13 40.652C42.6454 41.5317 41.9499 42.2774 41.106 42.822C40.1964 43.3988 39.1882 43.8029 38.132 44.014C37 44.254 35.806 44.374 34.552 44.374C33.3178 44.3794 32.0858 44.2696 30.872 44.046C29.8219 43.8644 28.8034 43.5323 27.848 43.06V37.8C29.6556 39.3382 31.9485 40.1883 34.322 40.2C34.988 40.2 35.57 40.14 36.066 40.02C36.564 39.9 36.978 39.732 37.312 39.52C37.644 39.304 37.892 39.052 38.058 38.76C38.2415 38.42 38.3249 38.035 38.2987 37.6496C38.2726 37.2642 38.1378 36.894 37.91 36.582C37.6128 36.1888 37.2494 35.8504 36.836 35.582C36.3233 35.2422 35.7835 34.9452 35.222 34.694C34.5565 34.3901 33.885 34.0993 33.208 33.822C31.372 33.056 30.004 32.118 29.102 31.012C28.202 29.906 27.75 28.568 27.75 27.002C27.75 25.774 27.996 24.72 28.488 23.838C28.98 22.956 29.648 22.23 30.496 21.66C31.3929 21.0683 32.3887 20.6422 33.436 20.402C34.596 20.1285 35.7843 19.9936 36.976 20ZM6.75 20.376H25.876V24.708H19.012V44H13.578V24.708H6.75V20.376Z" fill="#FAFAFA"/>
</g>
<defs>
<clipPath id="clip0_478_787">
<rect width="48" height="48" fill="white" transform="translate(0 0.5)"/>
</clipPath>
</defs>
</svg>
