<svg width="33" height="32" viewBox="0 0 33 32" fill="none" xmlns="http://www.w3.org/2000/svg">
<g id="simple-icons:upwork" clip-path="url(#clip0_252_1877)">
<path id="Vector" d="M25.248 17.544C23.7787 17.544 22.4013 16.9213 21.1493 15.908L21.4533 14.4733L21.464 14.4173C21.74 12.8933 22.596 10.3373 25.2493 10.3373C26.205 10.338 27.1212 10.718 27.797 11.3937C28.4727 12.0694 28.8526 12.9857 28.8533 13.9413C28.8516 14.8967 28.4711 15.8125 27.7952 16.4878C27.1194 17.1631 26.2034 17.5429 25.248 17.544ZM25.248 6.69066C21.8627 6.69066 19.2347 8.88933 18.168 12.512C16.5413 10.0667 15.304 7.13066 14.5853 4.656H10.9373V14.1387C10.9363 15.0391 10.5782 15.9024 9.94158 16.5393C9.30497 17.1762 8.44181 17.5346 7.54133 17.536C6.64122 17.5342 5.77853 17.1756 5.14242 16.5388C4.50631 15.9019 4.1487 15.0388 4.148 14.1387V4.656H0.5V14.1387C0.5 18.024 3.66 21.2093 7.54133 21.2093C11.4253 21.2093 14.5853 18.024 14.5853 14.1387V12.552C15.2907 14.028 16.1613 15.524 17.2173 16.8467L14.9867 27.344H18.716L20.3333 19.7307C21.7507 20.636 23.38 21.2093 25.248 21.2093C29.248 21.2093 32.5 17.94 32.5 13.9427C32.5 9.94266 29.248 6.69066 25.248 6.69066Z" fill="#FAFAFA"/>
</g>
<defs>
<clipPath id="clip0_252_1877">
<rect width="32" height="32" fill="white" transform="translate(0.5)"/>
</clipPath>
</defs>
</svg>
