<svg width="33" height="33" viewBox="0 0 33 33" fill="none" xmlns="http://www.w3.org/2000/svg">
<g id="mdi:github">
<path id="Vector" d="M16.5 3.16663C14.7491 3.16663 13.0152 3.5115 11.3976 4.18157C9.7799 4.85163 8.31004 5.83375 7.07193 7.07187C4.57144 9.57235 3.16669 12.9637 3.16669 16.5C3.16669 22.3933 6.99335 27.3933 12.2867 29.1666C12.9534 29.2733 13.1667 28.86 13.1667 28.5V26.2466C9.47335 27.0466 8.68669 24.46 8.68669 24.46C8.07335 22.9133 7.20669 22.5 7.20669 22.5C5.99335 21.6733 7.30002 21.7 7.30002 21.7C8.63335 21.7933 9.34002 23.0733 9.34002 23.0733C10.5 25.1 12.46 24.5 13.22 24.18C13.34 23.3133 13.6867 22.7266 14.06 22.3933C11.1 22.06 7.99335 20.9133 7.99335 15.8333C7.99335 14.3533 8.50002 13.1666 9.36669 12.22C9.23335 11.8866 8.76669 10.5 9.50002 8.69996C9.50002 8.69996 10.62 8.33996 13.1667 10.06C14.22 9.76663 15.3667 9.61996 16.5 9.61996C17.6334 9.61996 18.78 9.76663 19.8334 10.06C22.38 8.33996 23.5 8.69996 23.5 8.69996C24.2334 10.5 23.7667 11.8866 23.6334 12.22C24.5 13.1666 25.0067 14.3533 25.0067 15.8333C25.0067 20.9266 21.8867 22.0466 18.9134 22.38C19.3934 22.7933 19.8334 23.6066 19.8334 24.8466V28.5C19.8334 28.86 20.0467 29.2866 20.7267 29.1666C26.02 27.38 29.8334 22.3933 29.8334 16.5C29.8334 14.749 29.4885 13.0152 28.8184 11.3975C28.1484 9.77984 27.1662 8.30998 25.9281 7.07187C24.69 5.83375 23.2201 4.85163 21.6025 4.18157C19.9848 3.5115 18.251 3.16663 16.5 3.16663Z" fill="#404040"/>
</g>
</svg>
