<svg width="32" height="33" viewBox="0 0 32 33" fill="none" xmlns="http://www.w3.org/2000/svg">
<g id="simple-icons:adobeillustrator" clip-path="url(#clip0_498_1045)">
<path id="Vector" d="M14.04 14.8067C13.9067 14.3934 13.7867 13.9934 13.6533 13.58C13.52 13.1667 13.4 12.78 13.2933 12.3934C13.1867 12.02 13.0933 11.6734 13 11.3534H12.9733C12.8533 11.9267 12.7067 12.5 12.52 13.0734C12.32 13.7134 12.12 14.38 11.9067 15.0467C11.72 15.7267 11.52 16.3534 11.32 16.9134H14.7067C14.6267 16.632 14.52 16.3 14.4 15.952C14.28 15.5934 14.16 15.2067 14.04 14.8067ZM26.3333 0.900024H5.66667C2.53333 0.900024 0 3.43336 0 6.56669V26.4334C0 29.5667 2.53333 32.1 5.66667 32.1H26.3333C29.4667 32.1 32 29.5667 32 26.4334V6.56669C32 3.43336 29.4667 0.900024 26.3333 0.900024ZM19.6 22.94H16.812C16.72 22.9534 16.6267 22.8867 16.6 22.7934L15.5067 19.62H10.5467L9.53333 22.7534C9.50667 22.8734 9.4 22.9534 9.28 22.9414H6.77333C6.62667 22.9414 6.58667 22.86 6.62667 22.7014L10.92 10.34C10.96 10.2067 11 10.06 11.0533 9.90002C11.1067 9.62002 11.1333 9.32669 11.1333 9.03336C11.12 8.96669 11.1733 8.90002 11.24 8.88669H14.6933C14.8 8.88669 14.8533 8.92669 14.8667 8.99336L19.7333 22.7267C19.7733 22.872 19.7333 22.94 19.6 22.94ZM24.1333 22.74C24.1333 22.8867 24.0813 22.9534 23.9613 22.9534H21.3467C21.2133 22.9534 21.1467 22.872 21.1467 22.74V12.4734C21.1467 12.34 21.2013 12.2867 21.3213 12.2867H23.9613C24.0813 12.2867 24.1333 12.3534 24.1333 12.4734V22.74ZM23.8547 10.7C23.6972 10.8599 23.5073 10.9843 23.2978 11.0648C23.0883 11.1453 22.864 11.18 22.64 11.1667C22.2 11.18 21.7733 11.0067 21.452 10.7C21.1465 10.366 20.9838 9.92575 20.9987 9.47336C20.9853 9.02002 21.1587 8.59336 21.4773 8.28669C21.8 7.98002 22.2267 7.82002 22.6667 7.82002C23.188 7.82002 23.5853 7.98002 23.88 8.28669C24.1733 8.60669 24.3333 9.03336 24.32 9.47336C24.3333 9.92669 24.1733 10.3667 23.8547 10.7Z" fill="#404040"/>
</g>
<defs>
<clipPath id="clip0_498_1045">
<rect width="32" height="32" fill="white" transform="translate(0 0.5)"/>
</clipPath>
</defs>
</svg>
