<svg width="33" height="33" viewBox="0 0 33 33" fill="none" xmlns="http://www.w3.org/2000/svg">
<g id="teenyicons:react-outline" clip-path="url(#clip0_478_779)">
<g id="Group">
<path id="Vector" d="M31.4333 16.6792C31.4333 20.2141 24.7475 23.0792 16.5 23.0792C8.25252 23.0792 1.56665 20.2141 1.56665 16.6792C1.56665 13.1442 8.25252 10.2792 16.5 10.2792C24.7475 10.2792 31.4333 13.1442 31.4333 16.6792Z" stroke="#404040" stroke-width="2.13333"/>
<path id="Vector_2" d="M9.38744 29.8099C12.4957 31.4952 18.1981 26.9789 22.1277 19.7277C26.0552 12.4744 26.7208 5.23174 23.6125 3.54854C20.5042 1.8632 14.8018 6.37947 10.8722 13.6307C6.94478 20.884 6.27918 28.1267 9.38744 29.8099Z" stroke="#404040" stroke-width="2.13333"/>
<path id="Vector_3" d="M23.6125 29.8099C20.5042 31.4952 14.8018 26.9789 10.8722 19.7277C6.94478 12.4744 6.27918 5.23174 9.38744 3.54854C12.4957 1.8632 18.1981 6.37947 22.1277 13.6307C26.0552 20.884 26.7208 28.1267 23.6125 29.8099Z" stroke="#404040" stroke-width="2.13333"/>
<path id="Vector_4" d="M14.3666 16.6792C14.3666 17.245 14.5914 17.7876 14.9915 18.1877C15.3916 18.5878 15.9342 18.8126 16.5 18.8126C17.0658 18.8126 17.6084 18.5878 18.0085 18.1877C18.4085 17.7876 18.6333 17.245 18.6333 16.6792C18.6333 16.1134 18.4085 15.5708 18.0085 15.1707C17.6084 14.7707 17.0658 14.5459 16.5 14.5459C15.9342 14.5459 15.3916 14.7707 14.9915 15.1707C14.5914 15.5708 14.3666 16.1134 14.3666 16.6792Z" stroke="#404040" stroke-width="2.13333"/>
</g>
</g>
<defs>
<clipPath id="clip0_478_779">
<rect width="32" height="32" fill="white" transform="translate(0.5 0.5)"/>
</clipPath>
</defs>
</svg>
