<svg width="33" height="33" viewBox="0 0 33 33" fill="none" xmlns="http://www.w3.org/2000/svg">
<g id="simple-icons:react" clip-path="url(#clip0_508_325)">
<path id="Vector" d="M19.4733 16.5053C19.4733 17.2958 19.1594 18.0539 18.6006 18.613C18.0418 19.172 17.2838 19.4863 16.4933 19.4866C15.7026 19.4866 14.9443 19.1725 14.3852 18.6134C13.8261 18.0543 13.512 17.296 13.512 16.5053C13.512 15.7148 13.8259 14.9567 14.3847 14.3977C14.9436 13.8386 15.7015 13.5243 16.492 13.524C17.2827 13.524 18.041 13.8381 18.6001 14.3972C19.1592 14.9563 19.4733 15.7146 19.4733 16.5053ZM23.004 2.25198C21.2093 2.25198 18.8613 3.53198 16.4867 5.74798C14.1133 3.54398 11.764 2.27865 9.97067 2.27865C9.424 2.27865 8.92667 2.40265 8.496 2.64931C6.66267 3.70665 6.252 7.00132 7.19867 11.136C3.14 12.3893 0.5 14.3933 0.5 16.5053C0.5 18.6253 3.15333 20.6346 7.224 21.8786C6.28533 26.0293 6.704 29.3293 8.54133 30.3853C8.968 30.6346 9.46133 30.752 10.0107 30.752C11.804 30.752 14.1533 29.472 16.528 27.2533C18.9013 29.4587 21.2507 30.724 23.044 30.724C23.5907 30.724 24.088 30.604 24.5187 30.3573C26.3507 29.3013 26.7627 26.0066 25.816 21.8706C29.86 20.628 32.5 18.62 32.5 16.5053C32.5 14.3853 29.8467 12.376 25.776 11.1293C26.7147 6.98265 26.296 3.67998 24.4587 2.62265C24.0145 2.37286 23.5135 2.24498 23.004 2.25198ZM22.9973 3.70531V3.71332C23.2973 3.71332 23.5387 3.77198 23.7413 3.88265C24.6293 4.39198 25.0147 6.32932 24.7147 8.82132C24.6427 9.43465 24.5253 10.0813 24.3813 10.7413C23.018 10.4114 21.6339 10.1736 20.2387 10.0293C19.4077 8.88266 18.5013 7.79269 17.5253 6.76665C19.648 4.79331 21.6413 3.71065 22.9987 3.70665L22.9973 3.70531ZM9.97067 3.73198C11.32 3.73198 13.3227 4.80931 15.4507 6.77198C14.536 7.73198 13.624 8.82132 12.7573 10.028C11.3588 10.1705 9.97191 10.4102 8.60667 10.7453C8.46352 10.12 8.3505 9.48815 8.268 8.85198C7.96133 6.36131 8.34 4.42531 9.22 3.90931C9.47333 3.78931 9.75333 3.73865 9.97067 3.73198ZM16.48 7.79865C17.0867 8.42265 17.6933 9.12132 18.2933 9.88398C17.7067 9.85732 17.1067 9.83865 16.5 9.83865C15.8867 9.83865 15.28 9.85198 14.6867 9.88398C15.2733 9.12132 15.88 8.42398 16.48 7.79865ZM16.5 11.3C17.4867 11.3 18.4693 11.3453 19.436 11.424C19.9773 12.2 20.5053 13.028 21.0133 13.904C21.5093 14.7573 21.96 15.624 22.3707 16.4986C21.96 17.372 21.5093 18.2453 21.02 19.0986C20.5133 19.9786 19.9893 20.816 19.4467 21.592C17.4896 21.7632 15.5214 21.7655 13.564 21.5986C13.0042 20.7941 12.478 19.9667 11.9867 19.1186C11.4907 18.2653 11.04 17.3986 10.6293 16.524C11.0414 15.6363 11.492 14.767 11.98 13.9186C12.4867 13.0386 13.0107 12.204 13.5533 11.428C14.5332 11.3414 15.5163 11.2978 16.5 11.2973V11.3ZM11.6533 11.6386C11.3333 12.1413 11.0133 12.656 10.7147 13.1853C10.4147 13.7053 10.1347 14.228 9.868 14.7506C9.51467 13.876 9.21467 13.004 8.96667 12.1546C9.82 11.9546 10.72 11.776 11.6533 11.6386ZM21.3333 11.6386C22.26 11.776 23.1533 11.9453 24.008 12.1546C23.768 12.9973 23.468 13.864 23.128 14.732C22.5839 13.6707 21.9854 12.6382 21.3347 11.6386H21.3333ZM25.4173 12.5386C26.0627 12.7386 26.676 12.9613 27.2507 13.2026C29.56 14.1893 31.0533 15.48 31.0533 16.504C31.0467 17.528 29.5533 18.824 27.244 19.804C26.684 20.044 26.0707 20.26 25.4373 20.4613C25.0369 19.1059 24.5469 17.7785 23.9707 16.488C24.5707 15.132 25.0507 13.808 25.4173 12.536V12.5386ZM7.55733 12.544C7.928 13.824 8.41733 15.1533 9.024 16.5173C8.45195 17.8002 7.96815 19.1206 7.576 20.4693C6.93067 20.2693 6.31733 20.0453 5.74933 19.8026C3.44 18.82 1.94667 17.528 1.94667 16.504C1.94667 15.48 3.44 14.1813 5.74933 13.2026C6.30933 12.9626 6.92267 12.7466 7.55733 12.544ZM23.128 18.2506C23.4813 19.1266 23.7813 20 24.0293 20.848C23.176 21.0573 22.2747 21.2346 21.3413 21.368C21.9912 20.3607 22.5867 19.3202 23.128 18.2506ZM9.868 18.2773C10.1347 18.8 10.4147 19.3213 10.7213 19.844C11.028 20.364 11.3413 20.8733 11.6613 21.368C10.7623 21.2379 9.86977 21.0662 8.98667 20.8533C9.22667 20.0133 9.528 19.144 9.86667 18.276L9.868 18.2773ZM24.3933 22.26C24.5427 22.9173 24.66 23.5506 24.732 24.1573C25.0387 26.648 24.66 28.584 23.78 29.1013C23.584 29.2213 23.3293 29.272 23.0293 29.272C21.68 29.272 19.6773 28.196 17.5493 26.232C18.464 25.272 19.376 24.184 20.2427 22.9786C21.7187 22.8213 23.1147 22.58 24.3933 22.26ZM8.62 22.2733C9.9 22.5853 11.2947 22.8266 12.7627 22.9826C13.6427 24.1893 14.556 25.2853 15.476 26.244C13.3493 28.2213 11.3533 29.304 9.996 29.304C9.73958 29.306 9.48652 29.2456 9.25867 29.128C8.37067 28.6213 7.98533 26.6826 8.28533 24.1906C8.35733 23.5773 8.476 22.932 8.62 22.2733ZM14.7 23.1266C15.2867 23.1533 15.8867 23.172 16.4933 23.172C17.1067 23.172 17.7133 23.1586 18.3067 23.1266C17.72 23.8893 17.1133 24.5866 16.5133 25.2133C15.9067 24.5866 15.3 23.8893 14.7 23.1266Z" fill="#404040"/>
</g>
<defs>
<clipPath id="clip0_508_325">
<rect width="32" height="32" fill="white" transform="translate(0.5 0.5)"/>
</clipPath>
</defs>
</svg>
