<svg width="32" height="33" viewBox="0 0 32 33" fill="none" xmlns="http://www.w3.org/2000/svg">
<g id="simple-icons:sanity" clip-path="url(#clip0_478_771)">
<path id="Vector" d="M9.85865 10.2467C9.46089 9.97983 9.08904 9.67628 8.74798 9.34C7.53065 8.12667 6.90798 6.584 6.90798 4.58267V3.816C8.93198 1.73867 12.052 0.5 15.7706 0.5C22.9626 0.5 27.124 4.23333 28.1506 9.48667H21.6266C20.9066 7.41467 19.1066 5.80133 15.824 5.80133C12.5946 5.80133 10.3093 7.50267 9.85998 10.2467H9.85865ZM6.24398 4.58267C6.24398 8.89733 8.95598 11.4653 14.3853 12.8187L20.14 14.1293C25.2786 15.2893 28.4066 18.1693 28.4066 22.8627C28.4451 24.912 27.768 26.9106 26.492 28.5147C26.492 23.8333 24.0253 21.3027 18.0786 19.7813L12.4306 18.52C7.90665 17.5067 4.41598 15.1387 4.41598 10.04C4.39374 8.06722 5.03862 6.14455 6.24398 4.58267ZM22.9066 22.4787C22.5173 25.4587 20.1173 27.1387 16.6426 27.1387C13.5573 27.1387 11.2453 25.8773 10.372 23.152H3.59198C4.69065 29.0867 9.63198 32.5 16.692 32.5C20.4626 32.5 23.728 31.34 25.8253 29.248V28.5147C25.8253 26.3013 25.248 24.68 24.036 23.4267C23.6922 23.074 23.3139 22.7569 22.9066 22.48V22.4787Z" fill="#404040"/>
</g>
<defs>
<clipPath id="clip0_478_771">
<rect width="32" height="32" fill="white" transform="translate(0 0.5)"/>
</clipPath>
</defs>
</svg>
