<svg width="32" height="33" viewBox="0 0 32 33" fill="none" xmlns="http://www.w3.org/2000/svg">
<g id="simple-icons:shopify" clip-path="url(#clip0_478_775)">
<path id="Vector" d="M20.4493 32.472L30.0707 30.3907C30.0707 30.3907 26.5987 6.90667 26.5707 6.75067C26.5467 6.596 26.4187 6.49467 26.2893 6.49467C26.16 6.49467 23.7173 6.31333 23.7173 6.31333C23.7173 6.31333 22.0173 4.61467 21.7987 4.432C21.7515 4.38938 21.6968 4.35592 21.6373 4.33333L20.4187 32.472H20.4493ZM15.6133 15.5733C15.6133 15.5733 14.5333 15.008 13.248 15.008C11.3187 15.008 11.2427 16.216 11.2427 16.5293C11.2427 18.172 15.5627 18.816 15.5627 22.7013C15.5627 25.7613 13.6427 27.7147 11.0213 27.7147C7.88266 27.7147 6.30133 25.7613 6.30133 25.7613L7.16266 22.98C7.16266 22.98 8.82266 24.4013 10.2027 24.4013C10.3701 24.4068 10.5369 24.3789 10.6933 24.3191C10.8498 24.2593 10.9927 24.1689 11.1138 24.0532C11.2349 23.9375 11.3316 23.7987 11.3984 23.6451C11.4652 23.4915 11.5006 23.3261 11.5027 23.1587C11.5027 21 7.964 20.9 7.964 17.3467C7.91866 14.364 10.0587 11.4587 14.4 11.4587C16.076 11.4587 16.9 11.94 16.9 11.94L15.64 15.56L15.6133 15.5733ZM14.8933 1.60667C15.0747 1.60667 15.2547 1.65733 15.4333 1.78667C14.1213 2.40667 12.6813 3.972 12.0893 7.10933C11.2539 7.37941 10.4142 7.63633 9.57066 7.88C10.2627 5.5 11.9347 1.62 14.8933 1.62V1.60667ZM16.54 5.53867V5.71867C15.5347 6.028 14.4293 6.364 13.348 6.7C13.9693 4.33067 15.1253 3.17333 16.128 2.73867C16.3853 3.40667 16.54 4.30667 16.54 5.53867ZM17.2587 2.56C18.184 2.65867 18.78 3.716 19.164 4.9C18.6987 5.052 18.184 5.208 17.62 5.388V5.052C17.62 4.04933 17.492 3.224 17.2587 2.55733V2.56ZM21.248 4.27867C21.2213 4.27867 21.168 4.30667 21.144 4.30667C21.12 4.30667 20.7587 4.40667 20.192 4.58667C19.628 2.94267 18.624 1.42667 16.848 1.42667H16.6947C16.18 0.778667 15.5587 0.5 15.02 0.5C10.8787 0.5 8.9 5.66933 8.28 8.29467C6.688 8.78133 5.52933 9.14267 5.4 9.19333C4.5 9.47733 4.47466 9.50267 4.37066 10.3533C4.27066 10.9693 1.93066 29.104 1.93066 29.104L20.012 32.5L21.248 4.27867Z" fill="#404040"/>
</g>
<defs>
<clipPath id="clip0_478_775">
<rect width="32" height="32" fill="white" transform="translate(0 0.5)"/>
</clipPath>
</defs>
</svg>
